<?xml version="1.0" encoding="utf-8" standalone="no"?>
<!DOCTYPE svg PUBLIC "-//W3C//DTD SVG 1.1//EN"
  "http://www.w3.org/Graphics/SVG/1.1/DTD/svg11.dtd">
<svg xmlns:xlink="http://www.w3.org/1999/xlink" width="926.966562pt" height="574.069687pt" viewBox="0 0 926.966562 574.069687" xmlns="http://www.w3.org/2000/svg" version="1.1">
 <metadata>
  <rdf:RDF xmlns:dc="http://purl.org/dc/elements/1.1/" xmlns:cc="http://creativecommons.org/ns#" xmlns:rdf="http://www.w3.org/1999/02/22-rdf-syntax-ns#">
   <cc:Work>
    <dc:type rdf:resource="http://purl.org/dc/dcmitype/StillImage"/>
    <dc:date>2026-06-26T22:09:38.541260</dc:date>
    <dc:format>image/svg+xml</dc:format>
    <dc:creator>
     <cc:Agent>
      <dc:title>Matplotlib v3.10.6, https://matplotlib.org/</dc:title>
     </cc:Agent>
    </dc:creator>
   </cc:Work>
  </rdf:RDF>
 </metadata>
 <defs>
  <style type="text/css">*{stroke-linejoin: round; stroke-linecap: butt}</style>
 </defs>
 <g id="figure_1">
  <g id="patch_1">
   <path d="M 0 574.069687 
L 926.966562 574.069687 
L 926.966562 0 
L 0 0 
z
" style="fill: #ffffff"/>
  </g>
  <g id="axes_1">
   <g id="patch_2">
    <path d="M 45.975313 515.755469 
L 919.766562 515.755469 
L 919.766562 39.575469 
L 45.975313 39.575469 
z
" style="fill: #ffffff"/>
   </g>
   <g id="matplotlib.axis_1">
    <g id="xtick_1">
     <g id="line2d_1">
      <path d="M 116.442349 515.755469 
L 116.442349 39.575469 
" clip-path="url(#pbd372c35f8)" style="fill: none; stroke: #ffffff; stroke-width: 0.8; stroke-linecap: round"/>
     </g>
     <g id="line2d_2"/>
     <g id="text_1">
      <!-- Spending &lt; income -->
      <g style="fill: #262626" transform="translate(61.270474 527.991094) scale(0.12 -0.12)">
       <defs>
        <path id="Arial-BoldMT-53" d="M 231 1491 
L 1131 1578 
Q 1213 1125 1461 912 
Q 1709 700 2131 700 
Q 2578 700 2804 889 
Q 3031 1078 3031 1331 
Q 3031 1494 2936 1608 
Q 2841 1722 2603 1806 
Q 2441 1863 1863 2006 
Q 1119 2191 819 2459 
Q 397 2838 397 3381 
Q 397 3731 595 4036 
Q 794 4341 1167 4500 
Q 1541 4659 2069 4659 
Q 2931 4659 3367 4281 
Q 3803 3903 3825 3272 
L 2900 3231 
Q 2841 3584 2645 3739 
Q 2450 3894 2059 3894 
Q 1656 3894 1428 3728 
Q 1281 3622 1281 3444 
Q 1281 3281 1419 3166 
Q 1594 3019 2269 2859 
Q 2944 2700 3267 2529 
Q 3591 2359 3773 2064 
Q 3956 1769 3956 1334 
Q 3956 941 3737 597 
Q 3519 253 3119 86 
Q 2719 -81 2122 -81 
Q 1253 -81 787 320 
Q 322 722 231 1491 
z
" transform="scale(0.015625)"/>
        <path id="Arial-BoldMT-70" d="M 434 3319 
L 1253 3319 
L 1253 2831 
Q 1413 3081 1684 3237 
Q 1956 3394 2288 3394 
Q 2866 3394 3269 2941 
Q 3672 2488 3672 1678 
Q 3672 847 3265 386 
Q 2859 -75 2281 -75 
Q 2006 -75 1782 34 
Q 1559 144 1313 409 
L 1313 -1263 
L 434 -1263 
L 434 3319 
z
M 1303 1716 
Q 1303 1156 1525 889 
Q 1747 622 2066 622 
Q 2372 622 2575 867 
Q 2778 1113 2778 1672 
Q 2778 2194 2568 2447 
Q 2359 2700 2050 2700 
Q 1728 2700 1515 2451 
Q 1303 2203 1303 1716 
z
" transform="scale(0.015625)"/>
        <path id="Arial-BoldMT-65" d="M 2381 1056 
L 3256 909 
Q 3088 428 2723 176 
Q 2359 -75 1813 -75 
Q 947 -75 531 491 
Q 203 944 203 1634 
Q 203 2459 634 2926 
Q 1066 3394 1725 3394 
Q 2466 3394 2894 2905 
Q 3322 2416 3303 1406 
L 1103 1406 
Q 1113 1016 1316 798 
Q 1519 581 1822 581 
Q 2028 581 2168 693 
Q 2309 806 2381 1056 
z
M 2431 1944 
Q 2422 2325 2234 2523 
Q 2047 2722 1778 2722 
Q 1491 2722 1303 2513 
Q 1116 2303 1119 1944 
L 2431 1944 
z
" transform="scale(0.015625)"/>
        <path id="Arial-BoldMT-6e" d="M 3478 0 
L 2600 0 
L 2600 1694 
Q 2600 2231 2544 2389 
Q 2488 2547 2361 2634 
Q 2234 2722 2056 2722 
Q 1828 2722 1647 2597 
Q 1466 2472 1398 2265 
Q 1331 2059 1331 1503 
L 1331 0 
L 453 0 
L 453 3319 
L 1269 3319 
L 1269 2831 
Q 1703 3394 2363 3394 
Q 2653 3394 2893 3289 
Q 3134 3184 3257 3021 
Q 3381 2859 3429 2653 
Q 3478 2447 3478 2063 
L 3478 0 
z
" transform="scale(0.015625)"/>
        <path id="Arial-BoldMT-64" d="M 3503 0 
L 2688 0 
L 2688 488 
Q 2484 203 2207 64 
Q 1931 -75 1650 -75 
Q 1078 -75 670 386 
Q 263 847 263 1672 
Q 263 2516 659 2955 
Q 1056 3394 1663 3394 
Q 2219 3394 2625 2931 
L 2625 4581 
L 3503 4581 
L 3503 0 
z
M 1159 1731 
Q 1159 1200 1306 963 
Q 1519 619 1900 619 
Q 2203 619 2415 876 
Q 2628 1134 2628 1647 
Q 2628 2219 2422 2470 
Q 2216 2722 1894 2722 
Q 1581 2722 1370 2473 
Q 1159 2225 1159 1731 
z
" transform="scale(0.015625)"/>
        <path id="Arial-BoldMT-69" d="M 459 3769 
L 459 4581 
L 1338 4581 
L 1338 3769 
L 459 3769 
z
M 459 0 
L 459 3319 
L 1338 3319 
L 1338 0 
L 459 0 
z
" transform="scale(0.015625)"/>
        <path id="Arial-BoldMT-67" d="M 378 -219 
L 1381 -341 
Q 1406 -516 1497 -581 
Q 1622 -675 1891 -675 
Q 2234 -675 2406 -572 
Q 2522 -503 2581 -350 
Q 2622 -241 2622 53 
L 2622 538 
Q 2228 0 1628 0 
Q 959 0 569 566 
Q 263 1013 263 1678 
Q 263 2513 664 2953 
Q 1066 3394 1663 3394 
Q 2278 3394 2678 2853 
L 2678 3319 
L 3500 3319 
L 3500 341 
Q 3500 -247 3403 -537 
Q 3306 -828 3131 -993 
Q 2956 -1159 2664 -1253 
Q 2372 -1347 1925 -1347 
Q 1081 -1347 728 -1058 
Q 375 -769 375 -325 
Q 375 -281 378 -219 
z
M 1163 1728 
Q 1163 1200 1367 954 
Q 1572 709 1872 709 
Q 2194 709 2416 961 
Q 2638 1213 2638 1706 
Q 2638 2222 2425 2472 
Q 2213 2722 1888 2722 
Q 1572 2722 1367 2476 
Q 1163 2231 1163 1728 
z
" transform="scale(0.015625)"/>
        <path id="Arial-BoldMT-20" transform="scale(0.015625)"/>
        <path id="Arial-BoldMT-3c" d="M 3438 522 
L 297 1888 
L 297 2644 
L 3438 4003 
L 3438 3113 
L 1247 2275 
L 3438 1406 
L 3438 522 
z
" transform="scale(0.015625)"/>
        <path id="Arial-BoldMT-63" d="M 3353 2338 
L 2488 2181 
Q 2444 2441 2289 2572 
Q 2134 2703 1888 2703 
Q 1559 2703 1364 2476 
Q 1169 2250 1169 1719 
Q 1169 1128 1367 884 
Q 1566 641 1900 641 
Q 2150 641 2309 783 
Q 2469 925 2534 1272 
L 3397 1125 
Q 3263 531 2881 228 
Q 2500 -75 1859 -75 
Q 1131 -75 698 384 
Q 266 844 266 1656 
Q 266 2478 700 2936 
Q 1134 3394 1875 3394 
Q 2481 3394 2839 3133 
Q 3197 2872 3353 2338 
z
" transform="scale(0.015625)"/>
        <path id="Arial-BoldMT-6f" d="M 256 1706 
Q 256 2144 472 2553 
Q 688 2963 1083 3178 
Q 1478 3394 1966 3394 
Q 2719 3394 3200 2905 
Q 3681 2416 3681 1669 
Q 3681 916 3195 420 
Q 2709 -75 1972 -75 
Q 1516 -75 1102 131 
Q 688 338 472 736 
Q 256 1134 256 1706 
z
M 1156 1659 
Q 1156 1166 1390 903 
Q 1625 641 1969 641 
Q 2313 641 2545 903 
Q 2778 1166 2778 1666 
Q 2778 2153 2545 2415 
Q 2313 2678 1969 2678 
Q 1625 2678 1390 2415 
Q 1156 2153 1156 1659 
z
" transform="scale(0.015625)"/>
        <path id="Arial-BoldMT-6d" d="M 394 3319 
L 1203 3319 
L 1203 2866 
Q 1638 3394 2238 3394 
Q 2556 3394 2790 3262 
Q 3025 3131 3175 2866 
Q 3394 3131 3647 3262 
Q 3900 3394 4188 3394 
Q 4553 3394 4806 3245 
Q 5059 3097 5184 2809 
Q 5275 2597 5275 2122 
L 5275 0 
L 4397 0 
L 4397 1897 
Q 4397 2391 4306 2534 
Q 4184 2722 3931 2722 
Q 3747 2722 3584 2609 
Q 3422 2497 3350 2280 
Q 3278 2063 3278 1594 
L 3278 0 
L 2400 0 
L 2400 1819 
Q 2400 2303 2353 2443 
Q 2306 2584 2207 2653 
Q 2109 2722 1941 2722 
Q 1738 2722 1575 2612 
Q 1413 2503 1342 2297 
Q 1272 2091 1272 1613 
L 1272 0 
L 394 0 
L 394 3319 
z
" transform="scale(0.015625)"/>
       </defs>
       <use xlink:href="#Arial-BoldMT-53"/>
       <use xlink:href="#Arial-BoldMT-70" transform="translate(66.699219 0)"/>
       <use xlink:href="#Arial-BoldMT-65" transform="translate(127.783203 0)"/>
       <use xlink:href="#Arial-BoldMT-6e" transform="translate(183.398438 0)"/>
       <use xlink:href="#Arial-BoldMT-64" transform="translate(244.482422 0)"/>
       <use xlink:href="#Arial-BoldMT-69" transform="translate(305.566406 0)"/>
       <use xlink:href="#Arial-BoldMT-6e" transform="translate(333.349609 0)"/>
       <use xlink:href="#Arial-BoldMT-67" transform="translate(394.433594 0)"/>
       <use xlink:href="#Arial-BoldMT-20" transform="translate(455.517578 0)"/>
       <use xlink:href="#Arial-BoldMT-3c" transform="translate(483.300781 0)"/>
       <use xlink:href="#Arial-BoldMT-20" transform="translate(541.699219 0)"/>
       <use xlink:href="#Arial-BoldMT-69" transform="translate(569.482422 0)"/>
       <use xlink:href="#Arial-BoldMT-6e" transform="translate(597.265625 0)"/>
       <use xlink:href="#Arial-BoldMT-63" transform="translate(658.349609 0)"/>
       <use xlink:href="#Arial-BoldMT-6f" transform="translate(713.964844 0)"/>
       <use xlink:href="#Arial-BoldMT-6d" transform="translate(775.048828 0)"/>
       <use xlink:href="#Arial-BoldMT-65" transform="translate(863.964844 0)"/>
      </g>
     </g>
    </g>
    <g id="xtick_2">
     <g id="line2d_3">
      <path d="M 398.310494 515.755469 
L 398.310494 39.575469 
" clip-path="url(#pbd372c35f8)" style="fill: none; stroke: #ffffff; stroke-width: 0.8; stroke-linecap: round"/>
     </g>
     <g id="line2d_4"/>
     <g id="text_2">
      <!-- Spending = income -->
      <g style="fill: #262626" transform="translate(343.138619 527.991094) scale(0.12 -0.12)">
       <defs>
        <path id="Arial-BoldMT-3d" d="M 266 2550 
L 266 3356 
L 3469 3356 
L 3469 2550 
L 266 2550 
z
M 266 1163 
L 266 1972 
L 3469 1972 
L 3469 1163 
L 266 1163 
z
" transform="scale(0.015625)"/>
       </defs>
       <use xlink:href="#Arial-BoldMT-53"/>
       <use xlink:href="#Arial-BoldMT-70" transform="translate(66.699219 0)"/>
       <use xlink:href="#Arial-BoldMT-65" transform="translate(127.783203 0)"/>
       <use xlink:href="#Arial-BoldMT-6e" transform="translate(183.398438 0)"/>
       <use xlink:href="#Arial-BoldMT-64" transform="translate(244.482422 0)"/>
       <use xlink:href="#Arial-BoldMT-69" transform="translate(305.566406 0)"/>
       <use xlink:href="#Arial-BoldMT-6e" transform="translate(333.349609 0)"/>
       <use xlink:href="#Arial-BoldMT-67" transform="translate(394.433594 0)"/>
       <use xlink:href="#Arial-BoldMT-20" transform="translate(455.517578 0)"/>
       <use xlink:href="#Arial-BoldMT-3d" transform="translate(483.300781 0)"/>
       <use xlink:href="#Arial-BoldMT-20" transform="translate(541.699219 0)"/>
       <use xlink:href="#Arial-BoldMT-69" transform="translate(569.482422 0)"/>
       <use xlink:href="#Arial-BoldMT-6e" transform="translate(597.265625 0)"/>
       <use xlink:href="#Arial-BoldMT-63" transform="translate(658.349609 0)"/>
       <use xlink:href="#Arial-BoldMT-6f" transform="translate(713.964844 0)"/>
       <use xlink:href="#Arial-BoldMT-6d" transform="translate(775.048828 0)"/>
       <use xlink:href="#Arial-BoldMT-65" transform="translate(863.964844 0)"/>
      </g>
     </g>
    </g>
    <g id="xtick_3">
     <g id="line2d_5">
      <path d="M 680.178639 515.755469 
L 680.178639 39.575469 
" clip-path="url(#pbd372c35f8)" style="fill: none; stroke: #ffffff; stroke-width: 0.8; stroke-linecap: round"/>
     </g>
     <g id="line2d_6"/>
     <g id="text_3">
      <!-- Spending &gt; income -->
      <g style="fill: #262626" transform="translate(625.006764 527.991094) scale(0.12 -0.12)">
       <defs>
        <path id="Arial-BoldMT-3e" d="M 297 519 
L 297 1403 
L 2491 2266 
L 297 3119 
L 297 3997 
L 3441 2638 
L 3441 1888 
L 297 519 
z
" transform="scale(0.015625)"/>
       </defs>
       <use xlink:href="#Arial-BoldMT-53"/>
       <use xlink:href="#Arial-BoldMT-70" transform="translate(66.699219 0)"/>
       <use xlink:href="#Arial-BoldMT-65" transform="translate(127.783203 0)"/>
       <use xlink:href="#Arial-BoldMT-6e" transform="translate(183.398438 0)"/>
       <use xlink:href="#Arial-BoldMT-64" transform="translate(244.482422 0)"/>
       <use xlink:href="#Arial-BoldMT-69" transform="translate(305.566406 0)"/>
       <use xlink:href="#Arial-BoldMT-6e" transform="translate(333.349609 0)"/>
       <use xlink:href="#Arial-BoldMT-67" transform="translate(394.433594 0)"/>
       <use xlink:href="#Arial-BoldMT-20" transform="translate(455.517578 0)"/>
       <use xlink:href="#Arial-BoldMT-3e" transform="translate(483.300781 0)"/>
       <use xlink:href="#Arial-BoldMT-20" transform="translate(541.699219 0)"/>
       <use xlink:href="#Arial-BoldMT-69" transform="translate(569.482422 0)"/>
       <use xlink:href="#Arial-BoldMT-6e" transform="translate(597.265625 0)"/>
       <use xlink:href="#Arial-BoldMT-63" transform="translate(658.349609 0)"/>
       <use xlink:href="#Arial-BoldMT-6f" transform="translate(713.964844 0)"/>
       <use xlink:href="#Arial-BoldMT-6d" transform="translate(775.048828 0)"/>
       <use xlink:href="#Arial-BoldMT-65" transform="translate(863.964844 0)"/>
      </g>
     </g>
    </g>
   </g>
   <g id="matplotlib.axis_2">
    <g id="ytick_1">
     <g id="line2d_7">
      <path d="M 45.975313 515.755469 
L 919.766562 515.755469 
" clip-path="url(#pbd372c35f8)" style="fill: none; stroke: #808080; stroke-opacity: 0.2; stroke-width: 0.7; stroke-linecap: round"/>
     </g>
     <g id="line2d_8"/>
     <g id="text_4">
      <!-- 0% -->
      <g style="fill: #262626" transform="translate(28.022188 519.334375) scale(0.1 -0.1)">
       <defs>
        <path id="ArialMT-30" d="M 266 2259 
Q 266 3072 433 3567 
Q 600 4063 929 4331 
Q 1259 4600 1759 4600 
Q 2128 4600 2406 4451 
Q 2684 4303 2865 4023 
Q 3047 3744 3150 3342 
Q 3253 2941 3253 2259 
Q 3253 1453 3087 958 
Q 2922 463 2592 192 
Q 2263 -78 1759 -78 
Q 1097 -78 719 397 
Q 266 969 266 2259 
z
M 844 2259 
Q 844 1131 1108 757 
Q 1372 384 1759 384 
Q 2147 384 2411 759 
Q 2675 1134 2675 2259 
Q 2675 3391 2411 3762 
Q 2147 4134 1753 4134 
Q 1366 4134 1134 3806 
Q 844 3388 844 2259 
z
" transform="scale(0.015625)"/>
        <path id="ArialMT-25" d="M 372 3481 
Q 372 3972 619 4315 
Q 866 4659 1334 4659 
Q 1766 4659 2048 4351 
Q 2331 4044 2331 3447 
Q 2331 2866 2045 2552 
Q 1759 2238 1341 2238 
Q 925 2238 648 2547 
Q 372 2856 372 3481 
z
M 1350 4272 
Q 1141 4272 1002 4090 
Q 863 3909 863 3425 
Q 863 2984 1003 2804 
Q 1144 2625 1350 2625 
Q 1563 2625 1702 2806 
Q 1841 2988 1841 3469 
Q 1841 3913 1700 4092 
Q 1559 4272 1350 4272 
z
M 1353 -169 
L 3859 4659 
L 4316 4659 
L 1819 -169 
L 1353 -169 
z
M 3334 1075 
Q 3334 1569 3581 1911 
Q 3828 2253 4300 2253 
Q 4731 2253 5014 1945 
Q 5297 1638 5297 1041 
Q 5297 459 5011 145 
Q 4725 -169 4303 -169 
Q 3888 -169 3611 142 
Q 3334 453 3334 1075 
z
M 4316 1866 
Q 4103 1866 3964 1684 
Q 3825 1503 3825 1019 
Q 3825 581 3965 400 
Q 4106 219 4313 219 
Q 4528 219 4667 400 
Q 4806 581 4806 1063 
Q 4806 1506 4665 1686 
Q 4525 1866 4316 1866 
z
" transform="scale(0.015625)"/>
       </defs>
       <use xlink:href="#ArialMT-30"/>
       <use xlink:href="#ArialMT-25" transform="translate(55.615234 0)"/>
      </g>
     </g>
    </g>
    <g id="ytick_2">
     <g id="line2d_9">
      <path d="M 45.975313 444.92921 
L 919.766562 444.92921 
" clip-path="url(#pbd372c35f8)" style="fill: none; stroke: #808080; stroke-opacity: 0.2; stroke-width: 0.7; stroke-linecap: round"/>
     </g>
     <g id="line2d_10"/>
     <g id="text_5">
      <!-- 5% -->
      <g style="fill: #262626" transform="translate(28.022188 448.508116) scale(0.1 -0.1)">
       <defs>
        <path id="ArialMT-35" d="M 266 1200 
L 856 1250 
Q 922 819 1161 601 
Q 1400 384 1738 384 
Q 2144 384 2425 690 
Q 2706 997 2706 1503 
Q 2706 1984 2436 2262 
Q 2166 2541 1728 2541 
Q 1456 2541 1237 2417 
Q 1019 2294 894 2097 
L 366 2166 
L 809 4519 
L 3088 4519 
L 3088 3981 
L 1259 3981 
L 1013 2750 
Q 1425 3038 1878 3038 
Q 2478 3038 2890 2622 
Q 3303 2206 3303 1553 
Q 3303 931 2941 478 
Q 2500 -78 1738 -78 
Q 1113 -78 717 272 
Q 322 622 266 1200 
z
" transform="scale(0.015625)"/>
       </defs>
       <use xlink:href="#ArialMT-35"/>
       <use xlink:href="#ArialMT-25" transform="translate(55.615234 0)"/>
      </g>
     </g>
    </g>
    <g id="ytick_3">
     <g id="line2d_11">
      <path d="M 45.975313 374.102951 
L 919.766562 374.102951 
" clip-path="url(#pbd372c35f8)" style="fill: none; stroke: #808080; stroke-opacity: 0.2; stroke-width: 0.7; stroke-linecap: round"/>
     </g>
     <g id="line2d_12"/>
     <g id="text_6">
      <!-- 10% -->
      <g style="fill: #262626" transform="translate(22.46125 377.681857) scale(0.1 -0.1)">
       <defs>
        <path id="ArialMT-31" d="M 2384 0 
L 1822 0 
L 1822 3584 
Q 1619 3391 1289 3197 
Q 959 3003 697 2906 
L 697 3450 
Q 1169 3672 1522 3987 
Q 1875 4303 2022 4600 
L 2384 4600 
L 2384 0 
z
" transform="scale(0.015625)"/>
       </defs>
       <use xlink:href="#ArialMT-31"/>
       <use xlink:href="#ArialMT-30" transform="translate(55.615234 0)"/>
       <use xlink:href="#ArialMT-25" transform="translate(111.230469 0)"/>
      </g>
     </g>
    </g>
    <g id="ytick_4">
     <g id="line2d_13">
      <path d="M 45.975313 303.276692 
L 919.766562 303.276692 
" clip-path="url(#pbd372c35f8)" style="fill: none; stroke: #808080; stroke-opacity: 0.2; stroke-width: 0.7; stroke-linecap: round"/>
     </g>
     <g id="line2d_14"/>
     <g id="text_7">
      <!-- 15% -->
      <g style="fill: #262626" transform="translate(22.46125 306.855599) scale(0.1 -0.1)">
       <use xlink:href="#ArialMT-31"/>
       <use xlink:href="#ArialMT-35" transform="translate(55.615234 0)"/>
       <use xlink:href="#ArialMT-25" transform="translate(111.230469 0)"/>
      </g>
     </g>
    </g>
    <g id="ytick_5">
     <g id="line2d_15">
      <path d="M 45.975313 232.450434 
L 919.766562 232.450434 
" clip-path="url(#pbd372c35f8)" style="fill: none; stroke: #808080; stroke-opacity: 0.2; stroke-width: 0.7; stroke-linecap: round"/>
     </g>
     <g id="line2d_16"/>
     <g id="text_8">
      <!-- 20% -->
      <g style="fill: #262626" transform="translate(22.46125 236.02934) scale(0.1 -0.1)">
       <defs>
        <path id="ArialMT-32" d="M 3222 541 
L 3222 0 
L 194 0 
Q 188 203 259 391 
Q 375 700 629 1000 
Q 884 1300 1366 1694 
Q 2113 2306 2375 2664 
Q 2638 3022 2638 3341 
Q 2638 3675 2398 3904 
Q 2159 4134 1775 4134 
Q 1369 4134 1125 3890 
Q 881 3647 878 3216 
L 300 3275 
Q 359 3922 746 4261 
Q 1134 4600 1788 4600 
Q 2447 4600 2831 4234 
Q 3216 3869 3216 3328 
Q 3216 3053 3103 2787 
Q 2991 2522 2730 2228 
Q 2469 1934 1863 1422 
Q 1356 997 1212 845 
Q 1069 694 975 541 
L 3222 541 
z
" transform="scale(0.015625)"/>
       </defs>
       <use xlink:href="#ArialMT-32"/>
       <use xlink:href="#ArialMT-30" transform="translate(55.615234 0)"/>
       <use xlink:href="#ArialMT-25" transform="translate(111.230469 0)"/>
      </g>
     </g>
    </g>
    <g id="ytick_6">
     <g id="line2d_17">
      <path d="M 45.975313 161.624175 
L 919.766562 161.624175 
" clip-path="url(#pbd372c35f8)" style="fill: none; stroke: #808080; stroke-opacity: 0.2; stroke-width: 0.7; stroke-linecap: round"/>
     </g>
     <g id="line2d_18"/>
     <g id="text_9">
      <!-- 25% -->
      <g style="fill: #262626" transform="translate(22.46125 165.203081) scale(0.1 -0.1)">
       <use xlink:href="#ArialMT-32"/>
       <use xlink:href="#ArialMT-35" transform="translate(55.615234 0)"/>
       <use xlink:href="#ArialMT-25" transform="translate(111.230469 0)"/>
      </g>
     </g>
    </g>
    <g id="ytick_7">
     <g id="line2d_19">
      <path d="M 45.975313 90.797916 
L 919.766562 90.797916 
" clip-path="url(#pbd372c35f8)" style="fill: none; stroke: #808080; stroke-opacity: 0.2; stroke-width: 0.7; stroke-linecap: round"/>
     </g>
     <g id="line2d_20"/>
     <g id="text_10">
      <!-- 30% -->
      <g style="fill: #262626" transform="translate(22.46125 94.376822) scale(0.1 -0.1)">
       <defs>
        <path id="ArialMT-33" d="M 269 1209 
L 831 1284 
Q 928 806 1161 595 
Q 1394 384 1728 384 
Q 2125 384 2398 659 
Q 2672 934 2672 1341 
Q 2672 1728 2419 1979 
Q 2166 2231 1775 2231 
Q 1616 2231 1378 2169 
L 1441 2663 
Q 1497 2656 1531 2656 
Q 1891 2656 2178 2843 
Q 2466 3031 2466 3422 
Q 2466 3731 2256 3934 
Q 2047 4138 1716 4138 
Q 1388 4138 1169 3931 
Q 950 3725 888 3313 
L 325 3413 
Q 428 3978 793 4289 
Q 1159 4600 1703 4600 
Q 2078 4600 2393 4439 
Q 2709 4278 2876 4000 
Q 3044 3722 3044 3409 
Q 3044 3113 2884 2869 
Q 2725 2625 2413 2481 
Q 2819 2388 3044 2092 
Q 3269 1797 3269 1353 
Q 3269 753 2831 336 
Q 2394 -81 1725 -81 
Q 1122 -81 723 278 
Q 325 638 269 1209 
z
" transform="scale(0.015625)"/>
       </defs>
       <use xlink:href="#ArialMT-33"/>
       <use xlink:href="#ArialMT-30" transform="translate(55.615234 0)"/>
       <use xlink:href="#ArialMT-25" transform="translate(111.230469 0)"/>
      </g>
     </g>
    </g>
    <g id="text_11">
     <!-- % using product in past 12 months -->
     <g style="fill: #262626" transform="translate(15.935625 377.332031) rotate(-90) scale(0.12 -0.12)">
      <defs>
       <path id="Arial-BoldMT-25" d="M 278 3450 
Q 278 4066 548 4362 
Q 819 4659 1281 4659 
Q 1759 4659 2029 4364 
Q 2300 4069 2300 3450 
Q 2300 2834 2029 2537 
Q 1759 2241 1297 2241 
Q 819 2241 548 2536 
Q 278 2831 278 3450 
z
M 963 3456 
Q 963 3009 1066 2856 
Q 1144 2744 1281 2744 
Q 1422 2744 1500 2856 
Q 1600 3009 1600 3456 
Q 1600 3903 1500 4053 
Q 1422 4169 1281 4169 
Q 1144 4169 1066 4056 
Q 963 3903 963 3456 
z
M 1950 -175 
L 1300 -175 
L 3741 4659 
L 4372 4659 
L 1950 -175 
z
M 3369 1028 
Q 3369 1644 3639 1941 
Q 3909 2238 4378 2238 
Q 4850 2238 5120 1941 
Q 5391 1644 5391 1028 
Q 5391 409 5120 112 
Q 4850 -184 4388 -184 
Q 3909 -184 3639 112 
Q 3369 409 3369 1028 
z
M 4053 1031 
Q 4053 584 4156 434 
Q 4234 319 4372 319 
Q 4513 319 4588 431 
Q 4691 584 4691 1031 
Q 4691 1478 4591 1631 
Q 4513 1744 4372 1744 
Q 4231 1744 4156 1631 
Q 4053 1478 4053 1031 
z
" transform="scale(0.015625)"/>
       <path id="Arial-BoldMT-75" d="M 2644 0 
L 2644 497 
Q 2463 231 2167 78 
Q 1872 -75 1544 -75 
Q 1209 -75 943 72 
Q 678 219 559 484 
Q 441 750 441 1219 
L 441 3319 
L 1319 3319 
L 1319 1794 
Q 1319 1094 1367 936 
Q 1416 778 1544 686 
Q 1672 594 1869 594 
Q 2094 594 2272 717 
Q 2450 841 2515 1023 
Q 2581 1206 2581 1919 
L 2581 3319 
L 3459 3319 
L 3459 0 
L 2644 0 
z
" transform="scale(0.015625)"/>
       <path id="Arial-BoldMT-73" d="M 150 947 
L 1031 1081 
Q 1088 825 1259 692 
Q 1431 559 1741 559 
Q 2081 559 2253 684 
Q 2369 772 2369 919 
Q 2369 1019 2306 1084 
Q 2241 1147 2013 1200 
Q 950 1434 666 1628 
Q 272 1897 272 2375 
Q 272 2806 612 3100 
Q 953 3394 1669 3394 
Q 2350 3394 2681 3172 
Q 3013 2950 3138 2516 
L 2309 2363 
Q 2256 2556 2107 2659 
Q 1959 2763 1684 2763 
Q 1338 2763 1188 2666 
Q 1088 2597 1088 2488 
Q 1088 2394 1175 2328 
Q 1294 2241 1995 2081 
Q 2697 1922 2975 1691 
Q 3250 1456 3250 1038 
Q 3250 581 2869 253 
Q 2488 -75 1741 -75 
Q 1063 -75 667 200 
Q 272 475 150 947 
z
" transform="scale(0.015625)"/>
       <path id="Arial-BoldMT-72" d="M 1300 0 
L 422 0 
L 422 3319 
L 1238 3319 
L 1238 2847 
Q 1447 3181 1614 3287 
Q 1781 3394 1994 3394 
Q 2294 3394 2572 3228 
L 2300 2463 
Q 2078 2606 1888 2606 
Q 1703 2606 1575 2504 
Q 1447 2403 1373 2137 
Q 1300 1872 1300 1025 
L 1300 0 
z
" transform="scale(0.015625)"/>
       <path id="Arial-BoldMT-74" d="M 1981 3319 
L 1981 2619 
L 1381 2619 
L 1381 1281 
Q 1381 875 1398 808 
Q 1416 741 1477 697 
Q 1538 653 1625 653 
Q 1747 653 1978 738 
L 2053 56 
Q 1747 -75 1359 -75 
Q 1122 -75 931 4 
Q 741 84 652 211 
Q 563 338 528 553 
Q 500 706 500 1172 
L 500 2619 
L 97 2619 
L 97 3319 
L 500 3319 
L 500 3978 
L 1381 4491 
L 1381 3319 
L 1981 3319 
z
" transform="scale(0.015625)"/>
       <path id="Arial-BoldMT-61" d="M 1116 2306 
L 319 2450 
Q 453 2931 781 3162 
Q 1109 3394 1756 3394 
Q 2344 3394 2631 3255 
Q 2919 3116 3036 2902 
Q 3153 2688 3153 2116 
L 3144 1091 
Q 3144 653 3186 445 
Q 3228 238 3344 0 
L 2475 0 
Q 2441 88 2391 259 
Q 2369 338 2359 363 
Q 2134 144 1878 34 
Q 1622 -75 1331 -75 
Q 819 -75 523 203 
Q 228 481 228 906 
Q 228 1188 362 1408 
Q 497 1628 739 1745 
Q 981 1863 1438 1950 
Q 2053 2066 2291 2166 
L 2291 2253 
Q 2291 2506 2166 2614 
Q 2041 2722 1694 2722 
Q 1459 2722 1328 2630 
Q 1197 2538 1116 2306 
z
M 2291 1594 
Q 2122 1538 1756 1459 
Q 1391 1381 1278 1306 
Q 1106 1184 1106 997 
Q 1106 813 1243 678 
Q 1381 544 1594 544 
Q 1831 544 2047 700 
Q 2206 819 2256 991 
Q 2291 1103 2291 1419 
L 2291 1594 
z
" transform="scale(0.015625)"/>
       <path id="Arial-BoldMT-31" d="M 2519 0 
L 1641 0 
L 1641 3309 
Q 1159 2859 506 2644 
L 506 3441 
Q 850 3553 1253 3867 
Q 1656 4181 1806 4600 
L 2519 4600 
L 2519 0 
z
" transform="scale(0.015625)"/>
       <path id="Arial-BoldMT-32" d="M 3238 816 
L 3238 0 
L 159 0 
Q 209 463 459 877 
Q 709 1291 1447 1975 
Q 2041 2528 2175 2725 
Q 2356 2997 2356 3263 
Q 2356 3556 2198 3714 
Q 2041 3872 1763 3872 
Q 1488 3872 1325 3706 
Q 1163 3541 1138 3156 
L 263 3244 
Q 341 3969 753 4284 
Q 1166 4600 1784 4600 
Q 2463 4600 2850 4234 
Q 3238 3869 3238 3325 
Q 3238 3016 3127 2736 
Q 3016 2456 2775 2150 
Q 2616 1947 2200 1565 
Q 1784 1184 1673 1059 
Q 1563 934 1494 816 
L 3238 816 
z
" transform="scale(0.015625)"/>
       <path id="Arial-BoldMT-68" d="M 1334 4581 
L 1334 2897 
Q 1759 3394 2350 3394 
Q 2653 3394 2897 3281 
Q 3141 3169 3264 2994 
Q 3388 2819 3433 2606 
Q 3478 2394 3478 1947 
L 3478 0 
L 2600 0 
L 2600 1753 
Q 2600 2275 2550 2415 
Q 2500 2556 2373 2639 
Q 2247 2722 2056 2722 
Q 1838 2722 1666 2615 
Q 1494 2509 1414 2295 
Q 1334 2081 1334 1663 
L 1334 0 
L 456 0 
L 456 4581 
L 1334 4581 
z
" transform="scale(0.015625)"/>
      </defs>
      <use xlink:href="#Arial-BoldMT-25"/>
      <use xlink:href="#Arial-BoldMT-20" transform="translate(88.916016 0)"/>
      <use xlink:href="#Arial-BoldMT-75" transform="translate(116.699219 0)"/>
      <use xlink:href="#Arial-BoldMT-73" transform="translate(177.783203 0)"/>
      <use xlink:href="#Arial-BoldMT-69" transform="translate(233.398438 0)"/>
      <use xlink:href="#Arial-BoldMT-6e" transform="translate(261.181641 0)"/>
      <use xlink:href="#Arial-BoldMT-67" transform="translate(322.265625 0)"/>
      <use xlink:href="#Arial-BoldMT-20" transform="translate(383.349609 0)"/>
      <use xlink:href="#Arial-BoldMT-70" transform="translate(411.132812 0)"/>
      <use xlink:href="#Arial-BoldMT-72" transform="translate(472.216797 0)"/>
      <use xlink:href="#Arial-BoldMT-6f" transform="translate(511.132812 0)"/>
      <use xlink:href="#Arial-BoldMT-64" transform="translate(572.216797 0)"/>
      <use xlink:href="#Arial-BoldMT-75" transform="translate(633.300781 0)"/>
      <use xlink:href="#Arial-BoldMT-63" transform="translate(694.384766 0)"/>
      <use xlink:href="#Arial-BoldMT-74" transform="translate(750 0)"/>
      <use xlink:href="#Arial-BoldMT-20" transform="translate(783.300781 0)"/>
      <use xlink:href="#Arial-BoldMT-69" transform="translate(811.083984 0)"/>
      <use xlink:href="#Arial-BoldMT-6e" transform="translate(838.867188 0)"/>
      <use xlink:href="#Arial-BoldMT-20" transform="translate(899.951172 0)"/>
      <use xlink:href="#Arial-BoldMT-70" transform="translate(927.734375 0)"/>
      <use xlink:href="#Arial-BoldMT-61" transform="translate(988.818359 0)"/>
      <use xlink:href="#Arial-BoldMT-73" transform="translate(1044.433594 0)"/>
      <use xlink:href="#Arial-BoldMT-74" transform="translate(1100.048828 0)"/>
      <use xlink:href="#Arial-BoldMT-20" transform="translate(1133.349609 0)"/>
      <use xlink:href="#Arial-BoldMT-31" transform="translate(1161.132812 0)"/>
      <use xlink:href="#Arial-BoldMT-32" transform="translate(1216.748047 0)"/>
      <use xlink:href="#Arial-BoldMT-20" transform="translate(1272.363281 0)"/>
      <use xlink:href="#Arial-BoldMT-6d" transform="translate(1300.146484 0)"/>
      <use xlink:href="#Arial-BoldMT-6f" transform="translate(1389.0625 0)"/>
      <use xlink:href="#Arial-BoldMT-6e" transform="translate(1450.146484 0)"/>
      <use xlink:href="#Arial-BoldMT-74" transform="translate(1511.230469 0)"/>
      <use xlink:href="#Arial-BoldMT-68" transform="translate(1544.53125 0)"/>
      <use xlink:href="#Arial-BoldMT-73" transform="translate(1605.615234 0)"/>
     </g>
    </g>
   </g>
   <g id="line2d_21">
    <path d="M 116.442349 502.729589 
L 398.310494 487.409152 
L 680.178639 459.464671 
" clip-path="url(#pbd372c35f8)" style="fill: none; stroke: #b8b8b8; stroke-opacity: 0.9; stroke-width: 3; stroke-linecap: round"/>
    <defs>
     <path id="m6cb502da42" d="M 0 4 
C 1.060812 4 2.078319 3.578535 2.828427 2.828427 
C 3.578535 2.078319 4 1.060812 4 0 
C 4 -1.060812 3.578535 -2.078319 2.828427 -2.828427 
C 2.078319 -3.578535 1.060812 -4 0 -4 
C -1.060812 -4 -2.078319 -3.578535 -2.828427 -2.828427 
C -3.578535 -2.078319 -4 -1.060812 -4 0 
C -4 1.060812 -3.578535 2.078319 -2.828427 2.828427 
C -2.078319 3.578535 -1.060812 4 0 4 
z
" style="stroke: #b8b8b8; stroke-opacity: 0.9"/>
    </defs>
    <g clip-path="url(#pbd372c35f8)">
     <use xlink:href="#m6cb502da42" x="116.442349" y="502.729589" style="fill: #b8b8b8; fill-opacity: 0.9; stroke: #b8b8b8; stroke-opacity: 0.9"/>
     <use xlink:href="#m6cb502da42" x="398.310494" y="487.409152" style="fill: #b8b8b8; fill-opacity: 0.9; stroke: #b8b8b8; stroke-opacity: 0.9"/>
     <use xlink:href="#m6cb502da42" x="680.178639" y="459.464671" style="fill: #b8b8b8; fill-opacity: 0.9; stroke: #b8b8b8; stroke-opacity: 0.9"/>
    </g>
   </g>
   <g id="line2d_22">
    <path d="M 116.442349 497.623973 
L 398.310494 477.968659 
L 680.178639 434.753213 
" clip-path="url(#pbd372c35f8)" style="fill: none; stroke: #8e3b46; stroke-opacity: 0.9; stroke-width: 3; stroke-linecap: round"/>
    <defs>
     <path id="m9d4d444282" d="M 0 4 
C 1.060812 4 2.078319 3.578535 2.828427 2.828427 
C 3.578535 2.078319 4 1.060812 4 0 
C 4 -1.060812 3.578535 -2.078319 2.828427 -2.828427 
C 2.078319 -3.578535 1.060812 -4 0 -4 
C -1.060812 -4 -2.078319 -3.578535 -2.828427 -2.828427 
C -3.578535 -2.078319 -4 -1.060812 -4 0 
C -4 1.060812 -3.578535 2.078319 -2.828427 2.828427 
C -2.078319 3.578535 -1.060812 4 0 4 
z
" style="stroke: #8e3b46; stroke-opacity: 0.9"/>
    </defs>
    <g clip-path="url(#pbd372c35f8)">
     <use xlink:href="#m9d4d444282" x="116.442349" y="497.623973" style="fill: #8e3b46; fill-opacity: 0.9; stroke: #8e3b46; stroke-opacity: 0.9"/>
     <use xlink:href="#m9d4d444282" x="398.310494" y="477.968659" style="fill: #8e3b46; fill-opacity: 0.9; stroke: #8e3b46; stroke-opacity: 0.9"/>
     <use xlink:href="#m9d4d444282" x="680.178639" y="434.753213" style="fill: #8e3b46; fill-opacity: 0.9; stroke: #8e3b46; stroke-opacity: 0.9"/>
    </g>
   </g>
   <g id="line2d_23">
    <path d="M 116.442349 458.499666 
L 398.310494 395.856337 
L 680.178639 341.888122 
" clip-path="url(#pbd372c35f8)" style="fill: none; stroke: #e76f51; stroke-opacity: 0.9; stroke-width: 3; stroke-linecap: round"/>
    <defs>
     <path id="madb6088b8c" d="M 0 4 
C 1.060812 4 2.078319 3.578535 2.828427 2.828427 
C 3.578535 2.078319 4 1.060812 4 0 
C 4 -1.060812 3.578535 -2.078319 2.828427 -2.828427 
C 2.078319 -3.578535 1.060812 -4 0 -4 
C -1.060812 -4 -2.078319 -3.578535 -2.828427 -2.828427 
C -3.578535 -2.078319 -4 -1.060812 -4 0 
C -4 1.060812 -3.578535 2.078319 -2.828427 2.828427 
C -2.078319 3.578535 -1.060812 4 0 4 
z
" style="stroke: #e76f51; stroke-opacity: 0.9"/>
    </defs>
    <g clip-path="url(#pbd372c35f8)">
     <use xlink:href="#madb6088b8c" x="116.442349" y="458.499666" style="fill: #e76f51; fill-opacity: 0.9; stroke: #e76f51; stroke-opacity: 0.9"/>
     <use xlink:href="#madb6088b8c" x="398.310494" y="395.856337" style="fill: #e76f51; fill-opacity: 0.9; stroke: #e76f51; stroke-opacity: 0.9"/>
     <use xlink:href="#madb6088b8c" x="680.178639" y="341.888122" style="fill: #e76f51; fill-opacity: 0.9; stroke: #e76f51; stroke-opacity: 0.9"/>
    </g>
   </g>
   <g id="line2d_24">
    <path d="M 116.442349 425.639893 
L 398.310494 357.029885 
L 680.178639 305.261863 
" clip-path="url(#pbd372c35f8)" style="fill: none; stroke: #f4a261; stroke-opacity: 0.9; stroke-width: 3; stroke-linecap: round"/>
    <defs>
     <path id="m0a342b5201" d="M 0 4 
C 1.060812 4 2.078319 3.578535 2.828427 2.828427 
C 3.578535 2.078319 4 1.060812 4 0 
C 4 -1.060812 3.578535 -2.078319 2.828427 -2.828427 
C 2.078319 -3.578535 1.060812 -4 0 -4 
C -1.060812 -4 -2.078319 -3.578535 -2.828427 -2.828427 
C -3.578535 -2.078319 -4 -1.060812 -4 0 
C -4 1.060812 -3.578535 2.078319 -2.828427 2.828427 
C -2.078319 3.578535 -1.060812 4 0 4 
z
" style="stroke: #f4a261; stroke-opacity: 0.9"/>
    </defs>
    <g clip-path="url(#pbd372c35f8)">
     <use xlink:href="#m0a342b5201" x="116.442349" y="425.639893" style="fill: #f4a261; fill-opacity: 0.9; stroke: #f4a261; stroke-opacity: 0.9"/>
     <use xlink:href="#m0a342b5201" x="398.310494" y="357.029885" style="fill: #f4a261; fill-opacity: 0.9; stroke: #f4a261; stroke-opacity: 0.9"/>
     <use xlink:href="#m0a342b5201" x="680.178639" y="305.261863" style="fill: #f4a261; fill-opacity: 0.9; stroke: #f4a261; stroke-opacity: 0.9"/>
    </g>
   </g>
   <g id="line2d_25">
    <path d="M 116.442349 492.181402 
L 398.310494 440.335069 
L 680.178639 371.594923 
" clip-path="url(#pbd372c35f8)" style="fill: none; stroke: #c8553d; stroke-opacity: 0.9; stroke-width: 3; stroke-linecap: round"/>
    <defs>
     <path id="m530be9ba12" d="M 0 4 
C 1.060812 4 2.078319 3.578535 2.828427 2.828427 
C 3.578535 2.078319 4 1.060812 4 0 
C 4 -1.060812 3.578535 -2.078319 2.828427 -2.828427 
C 2.078319 -3.578535 1.060812 -4 0 -4 
C -1.060812 -4 -2.078319 -3.578535 -2.828427 -2.828427 
C -3.578535 -2.078319 -4 -1.060812 -4 0 
C -4 1.060812 -3.578535 2.078319 -2.828427 2.828427 
C -2.078319 3.578535 -1.060812 4 0 4 
z
" style="stroke: #c8553d; stroke-opacity: 0.9"/>
    </defs>
    <g clip-path="url(#pbd372c35f8)">
     <use xlink:href="#m530be9ba12" x="116.442349" y="492.181402" style="fill: #c8553d; fill-opacity: 0.9; stroke: #c8553d; stroke-opacity: 0.9"/>
     <use xlink:href="#m530be9ba12" x="398.310494" y="440.335069" style="fill: #c8553d; fill-opacity: 0.9; stroke: #c8553d; stroke-opacity: 0.9"/>
     <use xlink:href="#m530be9ba12" x="680.178639" y="371.594923" style="fill: #c8553d; fill-opacity: 0.9; stroke: #c8553d; stroke-opacity: 0.9"/>
    </g>
   </g>
   <g id="line2d_26">
    <path d="M 116.442349 436.354845 
L 398.310494 293.933649 
L 680.178639 124.566979 
" clip-path="url(#pbd372c35f8)" style="fill: none; stroke: #b71c1c; stroke-opacity: 0.9; stroke-width: 3; stroke-linecap: round"/>
    <defs>
     <path id="md35bcee770" d="M 0 4 
C 1.060812 4 2.078319 3.578535 2.828427 2.828427 
C 3.578535 2.078319 4 1.060812 4 0 
C 4 -1.060812 3.578535 -2.078319 2.828427 -2.828427 
C 2.078319 -3.578535 1.060812 -4 0 -4 
C -1.060812 -4 -2.078319 -3.578535 -2.828427 -2.828427 
C -3.578535 -2.078319 -4 -1.060812 -4 0 
C -4 1.060812 -3.578535 2.078319 -2.828427 2.828427 
C -2.078319 3.578535 -1.060812 4 0 4 
z
" style="stroke: #b71c1c; stroke-opacity: 0.9"/>
    </defs>
    <g clip-path="url(#pbd372c35f8)">
     <use xlink:href="#md35bcee770" x="116.442349" y="436.354845" style="fill: #b71c1c; fill-opacity: 0.9; stroke: #b71c1c; stroke-opacity: 0.9"/>
     <use xlink:href="#md35bcee770" x="398.310494" y="293.933649" style="fill: #b71c1c; fill-opacity: 0.9; stroke: #b71c1c; stroke-opacity: 0.9"/>
     <use xlink:href="#md35bcee770" x="680.178639" y="124.566979" style="fill: #b71c1c; fill-opacity: 0.9; stroke: #b71c1c; stroke-opacity: 0.9"/>
    </g>
   </g>
   <g id="patch_3">
    <path d="M 45.975313 515.755469 
L 45.975313 39.575469 
" style="fill: none"/>
   </g>
   <g id="patch_4">
    <path d="M 45.975313 515.755469 
L 919.766563 515.755469 
" style="fill: none"/>
   </g>
   <g id="text_12">
    <!-- 4.0%  Tax refund advance -->
    <g style="fill: #b8b8b8" transform="translate(694.272046 461.927249) scale(0.095 -0.095)">
     <defs>
      <path id="Arial-BoldMT-34" d="M 1994 0 
L 1994 922 
L 119 922 
L 119 1691 
L 2106 4600 
L 2844 4600 
L 2844 1694 
L 3413 1694 
L 3413 922 
L 2844 922 
L 2844 0 
L 1994 0 
z
M 1994 1694 
L 1994 3259 
L 941 1694 
L 1994 1694 
z
" transform="scale(0.015625)"/>
      <path id="Arial-BoldMT-2e" d="M 459 0 
L 459 878 
L 1338 878 
L 1338 0 
L 459 0 
z
" transform="scale(0.015625)"/>
      <path id="Arial-BoldMT-30" d="M 1756 4600 
Q 2422 4600 2797 4125 
Q 3244 3563 3244 2259 
Q 3244 959 2794 391 
Q 2422 -78 1756 -78 
Q 1088 -78 678 436 
Q 269 950 269 2269 
Q 269 3563 719 4131 
Q 1091 4600 1756 4600 
z
M 1756 3872 
Q 1597 3872 1472 3770 
Q 1347 3669 1278 3406 
Q 1188 3066 1188 2259 
Q 1188 1453 1269 1151 
Q 1350 850 1473 750 
Q 1597 650 1756 650 
Q 1916 650 2041 751 
Q 2166 853 2234 1116 
Q 2325 1453 2325 2259 
Q 2325 3066 2244 3367 
Q 2163 3669 2039 3770 
Q 1916 3872 1756 3872 
z
" transform="scale(0.015625)"/>
      <path id="Arial-BoldMT-54" d="M 1497 0 
L 1497 3806 
L 138 3806 
L 138 4581 
L 3778 4581 
L 3778 3806 
L 2422 3806 
L 2422 0 
L 1497 0 
z
" transform="scale(0.015625)"/>
      <path id="Arial-BoldMT-78" d="M 38 0 
L 1234 1709 
L 88 3319 
L 1159 3319 
L 1747 2406 
L 2366 3319 
L 3397 3319 
L 2272 1747 
L 3500 0 
L 2422 0 
L 1747 1028 
L 1066 0 
L 38 0 
z
" transform="scale(0.015625)"/>
      <path id="Arial-BoldMT-66" d="M 75 3319 
L 563 3319 
L 563 3569 
Q 563 3988 652 4194 
Q 741 4400 980 4529 
Q 1219 4659 1584 4659 
Q 1959 4659 2319 4547 
L 2200 3934 
Q 1991 3984 1797 3984 
Q 1606 3984 1523 3895 
Q 1441 3806 1441 3553 
L 1441 3319 
L 2097 3319 
L 2097 2628 
L 1441 2628 
L 1441 0 
L 563 0 
L 563 2628 
L 75 2628 
L 75 3319 
z
" transform="scale(0.015625)"/>
      <path id="Arial-BoldMT-76" d="M 1372 0 
L 34 3319 
L 956 3319 
L 1581 1625 
L 1763 1059 
Q 1834 1275 1853 1344 
Q 1897 1484 1947 1625 
L 2578 3319 
L 3481 3319 
L 2163 0 
L 1372 0 
z
" transform="scale(0.015625)"/>
     </defs>
     <use xlink:href="#Arial-BoldMT-34"/>
     <use xlink:href="#Arial-BoldMT-2e" transform="translate(55.615234 0)"/>
     <use xlink:href="#Arial-BoldMT-30" transform="translate(83.398438 0)"/>
     <use xlink:href="#Arial-BoldMT-25" transform="translate(139.013672 0)"/>
     <use xlink:href="#Arial-BoldMT-20" transform="translate(227.929688 0)"/>
     <use xlink:href="#Arial-BoldMT-20" transform="translate(255.712891 0)"/>
     <use xlink:href="#Arial-BoldMT-54" transform="translate(283.496094 0)"/>
     <use xlink:href="#Arial-BoldMT-61" transform="translate(337.205078 0)"/>
     <use xlink:href="#Arial-BoldMT-78" transform="translate(392.820312 0)"/>
     <use xlink:href="#Arial-BoldMT-20" transform="translate(448.435547 0)"/>
     <use xlink:href="#Arial-BoldMT-72" transform="translate(476.21875 0)"/>
     <use xlink:href="#Arial-BoldMT-65" transform="translate(515.134766 0)"/>
     <use xlink:href="#Arial-BoldMT-66" transform="translate(570.75 0)"/>
     <use xlink:href="#Arial-BoldMT-75" transform="translate(604.050781 0)"/>
     <use xlink:href="#Arial-BoldMT-6e" transform="translate(665.134766 0)"/>
     <use xlink:href="#Arial-BoldMT-64" transform="translate(726.21875 0)"/>
     <use xlink:href="#Arial-BoldMT-20" transform="translate(787.302734 0)"/>
     <use xlink:href="#Arial-BoldMT-61" transform="translate(815.085938 0)"/>
     <use xlink:href="#Arial-BoldMT-64" transform="translate(870.701172 0)"/>
     <use xlink:href="#Arial-BoldMT-76" transform="translate(931.785156 0)"/>
     <use xlink:href="#Arial-BoldMT-61" transform="translate(987.400391 0)"/>
     <use xlink:href="#Arial-BoldMT-6e" transform="translate(1043.015625 0)"/>
     <use xlink:href="#Arial-BoldMT-63" transform="translate(1104.099609 0)"/>
     <use xlink:href="#Arial-BoldMT-65" transform="translate(1159.714844 0)"/>
    </g>
   </g>
   <g id="text_13">
    <!-- 5.7%  Pawn / auto title loan -->
    <g style="fill: #8e3b46" transform="translate(694.272046 437.215791) scale(0.095 -0.095)">
     <defs>
      <path id="Arial-BoldMT-35" d="M 284 1178 
L 1159 1269 
Q 1197 972 1381 798 
Q 1566 625 1806 625 
Q 2081 625 2272 848 
Q 2463 1072 2463 1522 
Q 2463 1944 2273 2155 
Q 2084 2366 1781 2366 
Q 1403 2366 1103 2031 
L 391 2134 
L 841 4519 
L 3163 4519 
L 3163 3697 
L 1506 3697 
L 1369 2919 
Q 1663 3066 1969 3066 
Q 2553 3066 2959 2641 
Q 3366 2216 3366 1538 
Q 3366 972 3038 528 
Q 2591 -78 1797 -78 
Q 1163 -78 763 262 
Q 363 603 284 1178 
z
" transform="scale(0.015625)"/>
      <path id="Arial-BoldMT-37" d="M 272 3703 
L 272 4519 
L 3275 4519 
L 3275 3881 
Q 2903 3516 2518 2831 
Q 2134 2147 1932 1376 
Q 1731 606 1734 0 
L 888 0 
Q 909 950 1279 1937 
Q 1650 2925 2269 3703 
L 272 3703 
z
" transform="scale(0.015625)"/>
      <path id="Arial-BoldMT-50" d="M 466 0 
L 466 4581 
L 1950 4581 
Q 2794 4581 3050 4513 
Q 3444 4409 3709 4064 
Q 3975 3719 3975 3172 
Q 3975 2750 3822 2462 
Q 3669 2175 3433 2011 
Q 3197 1847 2953 1794 
Q 2622 1728 1994 1728 
L 1391 1728 
L 1391 0 
L 466 0 
z
M 1391 3806 
L 1391 2506 
L 1897 2506 
Q 2444 2506 2628 2578 
Q 2813 2650 2917 2803 
Q 3022 2956 3022 3159 
Q 3022 3409 2875 3571 
Q 2728 3734 2503 3775 
Q 2338 3806 1838 3806 
L 1391 3806 
z
" transform="scale(0.015625)"/>
      <path id="Arial-BoldMT-77" d="M 1078 0 
L 28 3319 
L 881 3319 
L 1503 1144 
L 2075 3319 
L 2922 3319 
L 3475 1144 
L 4109 3319 
L 4975 3319 
L 3909 0 
L 3066 0 
L 2494 2134 
L 1931 0 
L 1078 0 
z
" transform="scale(0.015625)"/>
      <path id="Arial-BoldMT-2f" d="M -9 -78 
L 1125 4659 
L 1784 4659 
L 638 -78 
L -9 -78 
z
" transform="scale(0.015625)"/>
      <path id="Arial-BoldMT-6c" d="M 459 0 
L 459 4581 
L 1338 4581 
L 1338 0 
L 459 0 
z
" transform="scale(0.015625)"/>
     </defs>
     <use xlink:href="#Arial-BoldMT-35"/>
     <use xlink:href="#Arial-BoldMT-2e" transform="translate(55.615234 0)"/>
     <use xlink:href="#Arial-BoldMT-37" transform="translate(83.398438 0)"/>
     <use xlink:href="#Arial-BoldMT-25" transform="translate(139.013672 0)"/>
     <use xlink:href="#Arial-BoldMT-20" transform="translate(227.929688 0)"/>
     <use xlink:href="#Arial-BoldMT-20" transform="translate(255.712891 0)"/>
     <use xlink:href="#Arial-BoldMT-50" transform="translate(283.496094 0)"/>
     <use xlink:href="#Arial-BoldMT-61" transform="translate(350.195312 0)"/>
     <use xlink:href="#Arial-BoldMT-77" transform="translate(405.810547 0)"/>
     <use xlink:href="#Arial-BoldMT-6e" transform="translate(483.59375 0)"/>
     <use xlink:href="#Arial-BoldMT-20" transform="translate(544.677734 0)"/>
     <use xlink:href="#Arial-BoldMT-2f" transform="translate(572.460938 0)"/>
     <use xlink:href="#Arial-BoldMT-20" transform="translate(600.244141 0)"/>
     <use xlink:href="#Arial-BoldMT-61" transform="translate(628.027344 0)"/>
     <use xlink:href="#Arial-BoldMT-75" transform="translate(683.642578 0)"/>
     <use xlink:href="#Arial-BoldMT-74" transform="translate(744.726562 0)"/>
     <use xlink:href="#Arial-BoldMT-6f" transform="translate(778.027344 0)"/>
     <use xlink:href="#Arial-BoldMT-20" transform="translate(839.111328 0)"/>
     <use xlink:href="#Arial-BoldMT-74" transform="translate(866.894531 0)"/>
     <use xlink:href="#Arial-BoldMT-69" transform="translate(900.195312 0)"/>
     <use xlink:href="#Arial-BoldMT-74" transform="translate(927.978516 0)"/>
     <use xlink:href="#Arial-BoldMT-6c" transform="translate(961.279297 0)"/>
     <use xlink:href="#Arial-BoldMT-65" transform="translate(989.0625 0)"/>
     <use xlink:href="#Arial-BoldMT-20" transform="translate(1044.677734 0)"/>
     <use xlink:href="#Arial-BoldMT-6c" transform="translate(1072.460938 0)"/>
     <use xlink:href="#Arial-BoldMT-6f" transform="translate(1100.244141 0)"/>
     <use xlink:href="#Arial-BoldMT-61" transform="translate(1161.328125 0)"/>
     <use xlink:href="#Arial-BoldMT-6e" transform="translate(1216.943359 0)"/>
    </g>
   </g>
   <g id="text_14">
    <!-- 12.3%  Check cashing outside bank -->
    <g style="fill: #e76f51" transform="translate(694.272046 344.346247) scale(0.095 -0.095)">
     <defs>
      <path id="Arial-BoldMT-33" d="M 241 1216 
L 1091 1319 
Q 1131 994 1309 822 
Q 1488 650 1741 650 
Q 2013 650 2198 856 
Q 2384 1063 2384 1413 
Q 2384 1744 2206 1937 
Q 2028 2131 1772 2131 
Q 1603 2131 1369 2066 
L 1466 2781 
Q 1822 2772 2009 2936 
Q 2197 3100 2197 3372 
Q 2197 3603 2059 3740 
Q 1922 3878 1694 3878 
Q 1469 3878 1309 3722 
Q 1150 3566 1116 3266 
L 306 3403 
Q 391 3819 561 4067 
Q 731 4316 1036 4458 
Q 1341 4600 1719 4600 
Q 2366 4600 2756 4188 
Q 3078 3850 3078 3425 
Q 3078 2822 2419 2463 
Q 2813 2378 3048 2084 
Q 3284 1791 3284 1375 
Q 3284 772 2843 347 
Q 2403 -78 1747 -78 
Q 1125 -78 715 280 
Q 306 638 241 1216 
z
" transform="scale(0.015625)"/>
      <path id="Arial-BoldMT-43" d="M 3397 1684 
L 4294 1400 
Q 4088 650 3608 286 
Q 3128 -78 2391 -78 
Q 1478 -78 890 545 
Q 303 1169 303 2250 
Q 303 3394 893 4026 
Q 1484 4659 2447 4659 
Q 3288 4659 3813 4163 
Q 4125 3869 4281 3319 
L 3366 3100 
Q 3284 3456 3026 3662 
Q 2769 3869 2400 3869 
Q 1891 3869 1573 3503 
Q 1256 3138 1256 2319 
Q 1256 1450 1568 1081 
Q 1881 713 2381 713 
Q 2750 713 3015 947 
Q 3281 1181 3397 1684 
z
" transform="scale(0.015625)"/>
      <path id="Arial-BoldMT-6b" d="M 428 0 
L 428 4581 
L 1306 4581 
L 1306 2150 
L 2334 3319 
L 3416 3319 
L 2281 2106 
L 3497 0 
L 2550 0 
L 1716 1491 
L 1306 1063 
L 1306 0 
L 428 0 
z
" transform="scale(0.015625)"/>
      <path id="Arial-BoldMT-62" d="M 422 0 
L 422 4581 
L 1300 4581 
L 1300 2931 
Q 1706 3394 2263 3394 
Q 2869 3394 3266 2955 
Q 3663 2516 3663 1694 
Q 3663 844 3258 384 
Q 2853 -75 2275 -75 
Q 1991 -75 1714 67 
Q 1438 209 1238 488 
L 1238 0 
L 422 0 
z
M 1294 1731 
Q 1294 1216 1456 969 
Q 1684 619 2063 619 
Q 2353 619 2558 867 
Q 2763 1116 2763 1650 
Q 2763 2219 2556 2470 
Q 2350 2722 2028 2722 
Q 1713 2722 1503 2476 
Q 1294 2231 1294 1731 
z
" transform="scale(0.015625)"/>
     </defs>
     <use xlink:href="#Arial-BoldMT-31"/>
     <use xlink:href="#Arial-BoldMT-32" transform="translate(55.615234 0)"/>
     <use xlink:href="#Arial-BoldMT-2e" transform="translate(111.230469 0)"/>
     <use xlink:href="#Arial-BoldMT-33" transform="translate(139.013672 0)"/>
     <use xlink:href="#Arial-BoldMT-25" transform="translate(194.628906 0)"/>
     <use xlink:href="#Arial-BoldMT-20" transform="translate(283.544922 0)"/>
     <use xlink:href="#Arial-BoldMT-20" transform="translate(311.328125 0)"/>
     <use xlink:href="#Arial-BoldMT-43" transform="translate(339.111328 0)"/>
     <use xlink:href="#Arial-BoldMT-68" transform="translate(411.328125 0)"/>
     <use xlink:href="#Arial-BoldMT-65" transform="translate(472.412109 0)"/>
     <use xlink:href="#Arial-BoldMT-63" transform="translate(528.027344 0)"/>
     <use xlink:href="#Arial-BoldMT-6b" transform="translate(583.642578 0)"/>
     <use xlink:href="#Arial-BoldMT-20" transform="translate(639.257812 0)"/>
     <use xlink:href="#Arial-BoldMT-63" transform="translate(667.041016 0)"/>
     <use xlink:href="#Arial-BoldMT-61" transform="translate(722.65625 0)"/>
     <use xlink:href="#Arial-BoldMT-73" transform="translate(778.271484 0)"/>
     <use xlink:href="#Arial-BoldMT-68" transform="translate(833.886719 0)"/>
     <use xlink:href="#Arial-BoldMT-69" transform="translate(894.970703 0)"/>
     <use xlink:href="#Arial-BoldMT-6e" transform="translate(922.753906 0)"/>
     <use xlink:href="#Arial-BoldMT-67" transform="translate(983.837891 0)"/>
     <use xlink:href="#Arial-BoldMT-20" transform="translate(1044.921875 0)"/>
     <use xlink:href="#Arial-BoldMT-6f" transform="translate(1072.705078 0)"/>
     <use xlink:href="#Arial-BoldMT-75" transform="translate(1133.789062 0)"/>
     <use xlink:href="#Arial-BoldMT-74" transform="translate(1194.873047 0)"/>
     <use xlink:href="#Arial-BoldMT-73" transform="translate(1228.173828 0)"/>
     <use xlink:href="#Arial-BoldMT-69" transform="translate(1283.789062 0)"/>
     <use xlink:href="#Arial-BoldMT-64" transform="translate(1311.572266 0)"/>
     <use xlink:href="#Arial-BoldMT-65" transform="translate(1372.65625 0)"/>
     <use xlink:href="#Arial-BoldMT-20" transform="translate(1428.271484 0)"/>
     <use xlink:href="#Arial-BoldMT-62" transform="translate(1456.054688 0)"/>
     <use xlink:href="#Arial-BoldMT-61" transform="translate(1517.138672 0)"/>
     <use xlink:href="#Arial-BoldMT-6e" transform="translate(1572.753906 0)"/>
     <use xlink:href="#Arial-BoldMT-6b" transform="translate(1633.837891 0)"/>
    </g>
   </g>
   <g id="text_15">
    <!-- 14.9%  Money order outside bank -->
    <g style="fill: #f4a261" transform="translate(694.272046 307.719988) scale(0.095 -0.095)">
     <defs>
      <path id="Arial-BoldMT-39" d="M 291 1059 
L 1141 1153 
Q 1172 894 1303 769 
Q 1434 644 1650 644 
Q 1922 644 2112 894 
Q 2303 1144 2356 1931 
Q 2025 1547 1528 1547 
Q 988 1547 595 1964 
Q 203 2381 203 3050 
Q 203 3747 617 4173 
Q 1031 4600 1672 4600 
Q 2369 4600 2816 4061 
Q 3263 3522 3263 2288 
Q 3263 1031 2797 475 
Q 2331 -81 1584 -81 
Q 1047 -81 715 205 
Q 384 491 291 1059 
z
M 2278 2978 
Q 2278 3403 2083 3637 
Q 1888 3872 1631 3872 
Q 1388 3872 1227 3680 
Q 1066 3488 1066 3050 
Q 1066 2606 1241 2398 
Q 1416 2191 1678 2191 
Q 1931 2191 2104 2391 
Q 2278 2591 2278 2978 
z
" transform="scale(0.015625)"/>
      <path id="Arial-BoldMT-4d" d="M 453 0 
L 453 4581 
L 1838 4581 
L 2669 1456 
L 3491 4581 
L 4878 4581 
L 4878 0 
L 4019 0 
L 4019 3606 
L 3109 0 
L 2219 0 
L 1313 3606 
L 1313 0 
L 453 0 
z
" transform="scale(0.015625)"/>
      <path id="Arial-BoldMT-79" d="M 44 3319 
L 978 3319 
L 1772 963 
L 2547 3319 
L 3456 3319 
L 2284 125 
L 2075 -453 
Q 1959 -744 1854 -897 
Q 1750 -1050 1614 -1145 
Q 1478 -1241 1279 -1294 
Q 1081 -1347 831 -1347 
Q 578 -1347 334 -1294 
L 256 -606 
Q 463 -647 628 -647 
Q 934 -647 1081 -467 
Q 1228 -288 1306 -9 
L 44 3319 
z
" transform="scale(0.015625)"/>
     </defs>
     <use xlink:href="#Arial-BoldMT-31"/>
     <use xlink:href="#Arial-BoldMT-34" transform="translate(55.615234 0)"/>
     <use xlink:href="#Arial-BoldMT-2e" transform="translate(111.230469 0)"/>
     <use xlink:href="#Arial-BoldMT-39" transform="translate(139.013672 0)"/>
     <use xlink:href="#Arial-BoldMT-25" transform="translate(194.628906 0)"/>
     <use xlink:href="#Arial-BoldMT-20" transform="translate(283.544922 0)"/>
     <use xlink:href="#Arial-BoldMT-20" transform="translate(311.328125 0)"/>
     <use xlink:href="#Arial-BoldMT-4d" transform="translate(339.111328 0)"/>
     <use xlink:href="#Arial-BoldMT-6f" transform="translate(422.412109 0)"/>
     <use xlink:href="#Arial-BoldMT-6e" transform="translate(483.496094 0)"/>
     <use xlink:href="#Arial-BoldMT-65" transform="translate(544.580078 0)"/>
     <use xlink:href="#Arial-BoldMT-79" transform="translate(600.195312 0)"/>
     <use xlink:href="#Arial-BoldMT-20" transform="translate(655.810547 0)"/>
     <use xlink:href="#Arial-BoldMT-6f" transform="translate(683.59375 0)"/>
     <use xlink:href="#Arial-BoldMT-72" transform="translate(744.677734 0)"/>
     <use xlink:href="#Arial-BoldMT-64" transform="translate(783.59375 0)"/>
     <use xlink:href="#Arial-BoldMT-65" transform="translate(844.677734 0)"/>
     <use xlink:href="#Arial-BoldMT-72" transform="translate(900.292969 0)"/>
     <use xlink:href="#Arial-BoldMT-20" transform="translate(939.208984 0)"/>
     <use xlink:href="#Arial-BoldMT-6f" transform="translate(966.992188 0)"/>
     <use xlink:href="#Arial-BoldMT-75" transform="translate(1028.076172 0)"/>
     <use xlink:href="#Arial-BoldMT-74" transform="translate(1089.160156 0)"/>
     <use xlink:href="#Arial-BoldMT-73" transform="translate(1122.460938 0)"/>
     <use xlink:href="#Arial-BoldMT-69" transform="translate(1178.076172 0)"/>
     <use xlink:href="#Arial-BoldMT-64" transform="translate(1205.859375 0)"/>
     <use xlink:href="#Arial-BoldMT-65" transform="translate(1266.943359 0)"/>
     <use xlink:href="#Arial-BoldMT-20" transform="translate(1322.558594 0)"/>
     <use xlink:href="#Arial-BoldMT-62" transform="translate(1350.341797 0)"/>
     <use xlink:href="#Arial-BoldMT-61" transform="translate(1411.425781 0)"/>
     <use xlink:href="#Arial-BoldMT-6e" transform="translate(1467.041016 0)"/>
     <use xlink:href="#Arial-BoldMT-6b" transform="translate(1528.125 0)"/>
    </g>
   </g>
   <g id="text_16">
    <!-- 10.2%  Payday loan / payday advance -->
    <g style="fill: #c8553d" transform="translate(694.272046 374.053048) scale(0.095 -0.095)">
     <use xlink:href="#Arial-BoldMT-31"/>
     <use xlink:href="#Arial-BoldMT-30" transform="translate(55.615234 0)"/>
     <use xlink:href="#Arial-BoldMT-2e" transform="translate(111.230469 0)"/>
     <use xlink:href="#Arial-BoldMT-32" transform="translate(139.013672 0)"/>
     <use xlink:href="#Arial-BoldMT-25" transform="translate(194.628906 0)"/>
     <use xlink:href="#Arial-BoldMT-20" transform="translate(283.544922 0)"/>
     <use xlink:href="#Arial-BoldMT-20" transform="translate(311.328125 0)"/>
     <use xlink:href="#Arial-BoldMT-50" transform="translate(339.111328 0)"/>
     <use xlink:href="#Arial-BoldMT-61" transform="translate(405.810547 0)"/>
     <use xlink:href="#Arial-BoldMT-79" transform="translate(461.425781 0)"/>
     <use xlink:href="#Arial-BoldMT-64" transform="translate(517.041016 0)"/>
     <use xlink:href="#Arial-BoldMT-61" transform="translate(578.125 0)"/>
     <use xlink:href="#Arial-BoldMT-79" transform="translate(633.740234 0)"/>
     <use xlink:href="#Arial-BoldMT-20" transform="translate(689.355469 0)"/>
     <use xlink:href="#Arial-BoldMT-6c" transform="translate(717.138672 0)"/>
     <use xlink:href="#Arial-BoldMT-6f" transform="translate(744.921875 0)"/>
     <use xlink:href="#Arial-BoldMT-61" transform="translate(806.005859 0)"/>
     <use xlink:href="#Arial-BoldMT-6e" transform="translate(861.621094 0)"/>
     <use xlink:href="#Arial-BoldMT-20" transform="translate(922.705078 0)"/>
     <use xlink:href="#Arial-BoldMT-2f" transform="translate(950.488281 0)"/>
     <use xlink:href="#Arial-BoldMT-20" transform="translate(978.271484 0)"/>
     <use xlink:href="#Arial-BoldMT-70" transform="translate(1006.054688 0)"/>
     <use xlink:href="#Arial-BoldMT-61" transform="translate(1067.138672 0)"/>
     <use xlink:href="#Arial-BoldMT-79" transform="translate(1122.753906 0)"/>
     <use xlink:href="#Arial-BoldMT-64" transform="translate(1178.369141 0)"/>
     <use xlink:href="#Arial-BoldMT-61" transform="translate(1239.453125 0)"/>
     <use xlink:href="#Arial-BoldMT-79" transform="translate(1295.068359 0)"/>
     <use xlink:href="#Arial-BoldMT-20" transform="translate(1350.683594 0)"/>
     <use xlink:href="#Arial-BoldMT-61" transform="translate(1378.466797 0)"/>
     <use xlink:href="#Arial-BoldMT-64" transform="translate(1434.082031 0)"/>
     <use xlink:href="#Arial-BoldMT-76" transform="translate(1495.166016 0)"/>
     <use xlink:href="#Arial-BoldMT-61" transform="translate(1550.78125 0)"/>
     <use xlink:href="#Arial-BoldMT-6e" transform="translate(1606.396484 0)"/>
     <use xlink:href="#Arial-BoldMT-63" transform="translate(1667.480469 0)"/>
     <use xlink:href="#Arial-BoldMT-65" transform="translate(1723.095703 0)"/>
    </g>
   </g>
   <g id="text_17">
    <!-- 27.6%  Overdraft fee -->
    <g style="fill: #b71c1c" transform="translate(694.272046 127.029557) scale(0.095 -0.095)">
     <defs>
      <path id="Arial-BoldMT-36" d="M 3247 3459 
L 2397 3366 
Q 2366 3628 2234 3753 
Q 2103 3878 1894 3878 
Q 1616 3878 1423 3628 
Q 1231 3378 1181 2588 
Q 1509 2975 1997 2975 
Q 2547 2975 2939 2556 
Q 3331 2138 3331 1475 
Q 3331 772 2918 347 
Q 2506 -78 1859 -78 
Q 1166 -78 719 461 
Q 272 1000 272 2228 
Q 272 3488 737 4044 
Q 1203 4600 1947 4600 
Q 2469 4600 2811 4308 
Q 3153 4016 3247 3459 
z
M 1256 1544 
Q 1256 1116 1453 883 
Q 1650 650 1903 650 
Q 2147 650 2309 840 
Q 2472 1031 2472 1466 
Q 2472 1913 2297 2120 
Q 2122 2328 1859 2328 
Q 1606 2328 1431 2129 
Q 1256 1931 1256 1544 
z
" transform="scale(0.015625)"/>
      <path id="Arial-BoldMT-4f" d="M 278 2263 
Q 278 2963 488 3438 
Q 644 3788 914 4066 
Q 1184 4344 1506 4478 
Q 1934 4659 2494 4659 
Q 3506 4659 4114 4031 
Q 4722 3403 4722 2284 
Q 4722 1175 4119 548 
Q 3516 -78 2506 -78 
Q 1484 -78 881 545 
Q 278 1169 278 2263 
z
M 1231 2294 
Q 1231 1516 1590 1114 
Q 1950 713 2503 713 
Q 3056 713 3411 1111 
Q 3766 1509 3766 2306 
Q 3766 3094 3420 3481 
Q 3075 3869 2503 3869 
Q 1931 3869 1581 3476 
Q 1231 3084 1231 2294 
z
" transform="scale(0.015625)"/>
     </defs>
     <use xlink:href="#Arial-BoldMT-32"/>
     <use xlink:href="#Arial-BoldMT-37" transform="translate(55.615234 0)"/>
     <use xlink:href="#Arial-BoldMT-2e" transform="translate(111.230469 0)"/>
     <use xlink:href="#Arial-BoldMT-36" transform="translate(139.013672 0)"/>
     <use xlink:href="#Arial-BoldMT-25" transform="translate(194.628906 0)"/>
     <use xlink:href="#Arial-BoldMT-20" transform="translate(283.544922 0)"/>
     <use xlink:href="#Arial-BoldMT-20" transform="translate(311.328125 0)"/>
     <use xlink:href="#Arial-BoldMT-4f" transform="translate(339.111328 0)"/>
     <use xlink:href="#Arial-BoldMT-76" transform="translate(416.894531 0)"/>
     <use xlink:href="#Arial-BoldMT-65" transform="translate(472.509766 0)"/>
     <use xlink:href="#Arial-BoldMT-72" transform="translate(528.125 0)"/>
     <use xlink:href="#Arial-BoldMT-64" transform="translate(567.041016 0)"/>
     <use xlink:href="#Arial-BoldMT-72" transform="translate(628.125 0)"/>
     <use xlink:href="#Arial-BoldMT-61" transform="translate(667.041016 0)"/>
     <use xlink:href="#Arial-BoldMT-66" transform="translate(722.65625 0)"/>
     <use xlink:href="#Arial-BoldMT-74" transform="translate(755.957031 0)"/>
     <use xlink:href="#Arial-BoldMT-20" transform="translate(789.257812 0)"/>
     <use xlink:href="#Arial-BoldMT-66" transform="translate(817.041016 0)"/>
     <use xlink:href="#Arial-BoldMT-65" transform="translate(850.341797 0)"/>
     <use xlink:href="#Arial-BoldMT-65" transform="translate(905.957031 0)"/>
    </g>
   </g>
   <g id="text_18">
    <!-- Alternative Financial Service Use Rises as Spending Outpaces Income -->
    <g style="fill: #262626" transform="translate(198.033281 19.575469) scale(0.17 -0.17)">
     <defs>
      <path id="Arial-BoldMT-41" d="M 4597 0 
L 3591 0 
L 3191 1041 
L 1359 1041 
L 981 0 
L 0 0 
L 1784 4581 
L 2763 4581 
L 4597 0 
z
M 2894 1813 
L 2263 3513 
L 1644 1813 
L 2894 1813 
z
" transform="scale(0.015625)"/>
      <path id="Arial-BoldMT-46" d="M 472 0 
L 472 4581 
L 3613 4581 
L 3613 3806 
L 1397 3806 
L 1397 2722 
L 3309 2722 
L 3309 1947 
L 1397 1947 
L 1397 0 
L 472 0 
z
" transform="scale(0.015625)"/>
      <path id="Arial-BoldMT-55" d="M 459 4581 
L 1384 4581 
L 1384 2100 
Q 1384 1509 1419 1334 
Q 1478 1053 1701 883 
Q 1925 713 2313 713 
Q 2706 713 2906 873 
Q 3106 1034 3147 1268 
Q 3188 1503 3188 2047 
L 3188 4581 
L 4113 4581 
L 4113 2175 
Q 4113 1350 4038 1009 
Q 3963 669 3761 434 
Q 3559 200 3221 61 
Q 2884 -78 2341 -78 
Q 1684 -78 1345 73 
Q 1006 225 809 467 
Q 613 709 550 975 
Q 459 1369 459 2138 
L 459 4581 
z
" transform="scale(0.015625)"/>
      <path id="Arial-BoldMT-52" d="M 469 0 
L 469 4581 
L 2416 4581 
Q 3150 4581 3483 4457 
Q 3816 4334 4016 4018 
Q 4216 3703 4216 3297 
Q 4216 2781 3912 2445 
Q 3609 2109 3006 2022 
Q 3306 1847 3501 1637 
Q 3697 1428 4028 894 
L 4588 0 
L 3481 0 
L 2813 997 
Q 2456 1531 2325 1670 
Q 2194 1809 2047 1861 
Q 1900 1913 1581 1913 
L 1394 1913 
L 1394 0 
L 469 0 
z
M 1394 2644 
L 2078 2644 
Q 2744 2644 2909 2700 
Q 3075 2756 3169 2893 
Q 3263 3031 3263 3238 
Q 3263 3469 3139 3611 
Q 3016 3753 2791 3791 
Q 2678 3806 2116 3806 
L 1394 3806 
L 1394 2644 
z
" transform="scale(0.015625)"/>
      <path id="Arial-BoldMT-49" d="M 438 0 
L 438 4581 
L 1363 4581 
L 1363 0 
L 438 0 
z
" transform="scale(0.015625)"/>
     </defs>
     <use xlink:href="#Arial-BoldMT-41"/>
     <use xlink:href="#Arial-BoldMT-6c" transform="translate(72.216797 0)"/>
     <use xlink:href="#Arial-BoldMT-74" transform="translate(100 0)"/>
     <use xlink:href="#Arial-BoldMT-65" transform="translate(133.300781 0)"/>
     <use xlink:href="#Arial-BoldMT-72" transform="translate(188.916016 0)"/>
     <use xlink:href="#Arial-BoldMT-6e" transform="translate(227.832031 0)"/>
     <use xlink:href="#Arial-BoldMT-61" transform="translate(288.916016 0)"/>
     <use xlink:href="#Arial-BoldMT-74" transform="translate(344.53125 0)"/>
     <use xlink:href="#Arial-BoldMT-69" transform="translate(377.832031 0)"/>
     <use xlink:href="#Arial-BoldMT-76" transform="translate(405.615234 0)"/>
     <use xlink:href="#Arial-BoldMT-65" transform="translate(461.230469 0)"/>
     <use xlink:href="#Arial-BoldMT-20" transform="translate(516.845703 0)"/>
     <use xlink:href="#Arial-BoldMT-46" transform="translate(544.628906 0)"/>
     <use xlink:href="#Arial-BoldMT-69" transform="translate(605.712891 0)"/>
     <use xlink:href="#Arial-BoldMT-6e" transform="translate(633.496094 0)"/>
     <use xlink:href="#Arial-BoldMT-61" transform="translate(694.580078 0)"/>
     <use xlink:href="#Arial-BoldMT-6e" transform="translate(750.195312 0)"/>
     <use xlink:href="#Arial-BoldMT-63" transform="translate(811.279297 0)"/>
     <use xlink:href="#Arial-BoldMT-69" transform="translate(866.894531 0)"/>
     <use xlink:href="#Arial-BoldMT-61" transform="translate(894.677734 0)"/>
     <use xlink:href="#Arial-BoldMT-6c" transform="translate(950.292969 0)"/>
     <use xlink:href="#Arial-BoldMT-20" transform="translate(978.076172 0)"/>
     <use xlink:href="#Arial-BoldMT-53" transform="translate(1005.859375 0)"/>
     <use xlink:href="#Arial-BoldMT-65" transform="translate(1072.558594 0)"/>
     <use xlink:href="#Arial-BoldMT-72" transform="translate(1128.173828 0)"/>
     <use xlink:href="#Arial-BoldMT-76" transform="translate(1167.089844 0)"/>
     <use xlink:href="#Arial-BoldMT-69" transform="translate(1222.705078 0)"/>
     <use xlink:href="#Arial-BoldMT-63" transform="translate(1250.488281 0)"/>
     <use xlink:href="#Arial-BoldMT-65" transform="translate(1306.103516 0)"/>
     <use xlink:href="#Arial-BoldMT-20" transform="translate(1361.71875 0)"/>
     <use xlink:href="#Arial-BoldMT-55" transform="translate(1389.501953 0)"/>
     <use xlink:href="#Arial-BoldMT-73" transform="translate(1461.71875 0)"/>
     <use xlink:href="#Arial-BoldMT-65" transform="translate(1517.333984 0)"/>
     <use xlink:href="#Arial-BoldMT-20" transform="translate(1572.949219 0)"/>
     <use xlink:href="#Arial-BoldMT-52" transform="translate(1600.732422 0)"/>
     <use xlink:href="#Arial-BoldMT-69" transform="translate(1672.949219 0)"/>
     <use xlink:href="#Arial-BoldMT-73" transform="translate(1700.732422 0)"/>
     <use xlink:href="#Arial-BoldMT-65" transform="translate(1756.347656 0)"/>
     <use xlink:href="#Arial-BoldMT-73" transform="translate(1811.962891 0)"/>
     <use xlink:href="#Arial-BoldMT-20" transform="translate(1867.578125 0)"/>
     <use xlink:href="#Arial-BoldMT-61" transform="translate(1895.361328 0)"/>
     <use xlink:href="#Arial-BoldMT-73" transform="translate(1950.976562 0)"/>
     <use xlink:href="#Arial-BoldMT-20" transform="translate(2006.591797 0)"/>
     <use xlink:href="#Arial-BoldMT-53" transform="translate(2034.375 0)"/>
     <use xlink:href="#Arial-BoldMT-70" transform="translate(2101.074219 0)"/>
     <use xlink:href="#Arial-BoldMT-65" transform="translate(2162.158203 0)"/>
     <use xlink:href="#Arial-BoldMT-6e" transform="translate(2217.773438 0)"/>
     <use xlink:href="#Arial-BoldMT-64" transform="translate(2278.857422 0)"/>
     <use xlink:href="#Arial-BoldMT-69" transform="translate(2339.941406 0)"/>
     <use xlink:href="#Arial-BoldMT-6e" transform="translate(2367.724609 0)"/>
     <use xlink:href="#Arial-BoldMT-67" transform="translate(2428.808594 0)"/>
     <use xlink:href="#Arial-BoldMT-20" transform="translate(2489.892578 0)"/>
     <use xlink:href="#Arial-BoldMT-4f" transform="translate(2517.675781 0)"/>
     <use xlink:href="#Arial-BoldMT-75" transform="translate(2595.458984 0)"/>
     <use xlink:href="#Arial-BoldMT-74" transform="translate(2656.542969 0)"/>
     <use xlink:href="#Arial-BoldMT-70" transform="translate(2689.84375 0)"/>
     <use xlink:href="#Arial-BoldMT-61" transform="translate(2750.927734 0)"/>
     <use xlink:href="#Arial-BoldMT-63" transform="translate(2806.542969 0)"/>
     <use xlink:href="#Arial-BoldMT-65" transform="translate(2862.158203 0)"/>
     <use xlink:href="#Arial-BoldMT-73" transform="translate(2917.773438 0)"/>
     <use xlink:href="#Arial-BoldMT-20" transform="translate(2973.388672 0)"/>
     <use xlink:href="#Arial-BoldMT-49" transform="translate(3001.171875 0)"/>
     <use xlink:href="#Arial-BoldMT-6e" transform="translate(3028.955078 0)"/>
     <use xlink:href="#Arial-BoldMT-63" transform="translate(3090.039062 0)"/>
     <use xlink:href="#Arial-BoldMT-6f" transform="translate(3145.654297 0)"/>
     <use xlink:href="#Arial-BoldMT-6d" transform="translate(3206.738281 0)"/>
     <use xlink:href="#Arial-BoldMT-65" transform="translate(3295.654297 0)"/>
    </g>
   </g>
  </g>
  <g id="text_19">
   <!-- Weighted percentages using weight_pop; sample is non-retired respondents from SHED 2024. -->
   <g style="fill: #666666" transform="translate(275.382031 564.975469) scale(0.09 -0.09)">
    <defs>
     <path id="ArialMT-57" d="M 1294 0 
L 78 4581 
L 700 4581 
L 1397 1578 
Q 1509 1106 1591 641 
Q 1766 1375 1797 1488 
L 2669 4581 
L 3400 4581 
L 4056 2263 
Q 4303 1400 4413 641 
Q 4500 1075 4641 1638 
L 5359 4581 
L 5969 4581 
L 4713 0 
L 4128 0 
L 3163 3491 
Q 3041 3928 3019 4028 
Q 2947 3713 2884 3491 
L 1913 0 
L 1294 0 
z
" transform="scale(0.015625)"/>
     <path id="ArialMT-65" d="M 2694 1069 
L 3275 997 
Q 3138 488 2766 206 
Q 2394 -75 1816 -75 
Q 1088 -75 661 373 
Q 234 822 234 1631 
Q 234 2469 665 2931 
Q 1097 3394 1784 3394 
Q 2450 3394 2872 2941 
Q 3294 2488 3294 1666 
Q 3294 1616 3291 1516 
L 816 1516 
Q 847 969 1125 678 
Q 1403 388 1819 388 
Q 2128 388 2347 550 
Q 2566 713 2694 1069 
z
M 847 1978 
L 2700 1978 
Q 2663 2397 2488 2606 
Q 2219 2931 1791 2931 
Q 1403 2931 1139 2672 
Q 875 2413 847 1978 
z
" transform="scale(0.015625)"/>
     <path id="ArialMT-69" d="M 425 3934 
L 425 4581 
L 988 4581 
L 988 3934 
L 425 3934 
z
M 425 0 
L 425 3319 
L 988 3319 
L 988 0 
L 425 0 
z
" transform="scale(0.015625)"/>
     <path id="ArialMT-67" d="M 319 -275 
L 866 -356 
Q 900 -609 1056 -725 
Q 1266 -881 1628 -881 
Q 2019 -881 2231 -725 
Q 2444 -569 2519 -288 
Q 2563 -116 2559 434 
Q 2191 0 1641 0 
Q 956 0 581 494 
Q 206 988 206 1678 
Q 206 2153 378 2554 
Q 550 2956 876 3175 
Q 1203 3394 1644 3394 
Q 2231 3394 2613 2919 
L 2613 3319 
L 3131 3319 
L 3131 450 
Q 3131 -325 2973 -648 
Q 2816 -972 2473 -1159 
Q 2131 -1347 1631 -1347 
Q 1038 -1347 672 -1080 
Q 306 -813 319 -275 
z
M 784 1719 
Q 784 1066 1043 766 
Q 1303 466 1694 466 
Q 2081 466 2343 764 
Q 2606 1063 2606 1700 
Q 2606 2309 2336 2618 
Q 2066 2928 1684 2928 
Q 1309 2928 1046 2623 
Q 784 2319 784 1719 
z
" transform="scale(0.015625)"/>
     <path id="ArialMT-68" d="M 422 0 
L 422 4581 
L 984 4581 
L 984 2938 
Q 1378 3394 1978 3394 
Q 2347 3394 2619 3248 
Q 2891 3103 3008 2847 
Q 3125 2591 3125 2103 
L 3125 0 
L 2563 0 
L 2563 2103 
Q 2563 2525 2380 2717 
Q 2197 2909 1863 2909 
Q 1613 2909 1392 2779 
Q 1172 2650 1078 2428 
Q 984 2206 984 1816 
L 984 0 
L 422 0 
z
" transform="scale(0.015625)"/>
     <path id="ArialMT-74" d="M 1650 503 
L 1731 6 
Q 1494 -44 1306 -44 
Q 1000 -44 831 53 
Q 663 150 594 308 
Q 525 466 525 972 
L 525 2881 
L 113 2881 
L 113 3319 
L 525 3319 
L 525 4141 
L 1084 4478 
L 1084 3319 
L 1650 3319 
L 1650 2881 
L 1084 2881 
L 1084 941 
Q 1084 700 1114 631 
Q 1144 563 1211 522 
Q 1278 481 1403 481 
Q 1497 481 1650 503 
z
" transform="scale(0.015625)"/>
     <path id="ArialMT-64" d="M 2575 0 
L 2575 419 
Q 2259 -75 1647 -75 
Q 1250 -75 917 144 
Q 584 363 401 755 
Q 219 1147 219 1656 
Q 219 2153 384 2558 
Q 550 2963 881 3178 
Q 1213 3394 1622 3394 
Q 1922 3394 2156 3267 
Q 2391 3141 2538 2938 
L 2538 4581 
L 3097 4581 
L 3097 0 
L 2575 0 
z
M 797 1656 
Q 797 1019 1065 703 
Q 1334 388 1700 388 
Q 2069 388 2326 689 
Q 2584 991 2584 1609 
Q 2584 2291 2321 2609 
Q 2059 2928 1675 2928 
Q 1300 2928 1048 2622 
Q 797 2316 797 1656 
z
" transform="scale(0.015625)"/>
     <path id="ArialMT-20" transform="scale(0.015625)"/>
     <path id="ArialMT-70" d="M 422 -1272 
L 422 3319 
L 934 3319 
L 934 2888 
Q 1116 3141 1344 3267 
Q 1572 3394 1897 3394 
Q 2322 3394 2647 3175 
Q 2972 2956 3137 2557 
Q 3303 2159 3303 1684 
Q 3303 1175 3120 767 
Q 2938 359 2589 142 
Q 2241 -75 1856 -75 
Q 1575 -75 1351 44 
Q 1128 163 984 344 
L 984 -1272 
L 422 -1272 
z
M 931 1641 
Q 931 1000 1190 694 
Q 1450 388 1819 388 
Q 2194 388 2461 705 
Q 2728 1022 2728 1688 
Q 2728 2322 2467 2637 
Q 2206 2953 1844 2953 
Q 1484 2953 1207 2617 
Q 931 2281 931 1641 
z
" transform="scale(0.015625)"/>
     <path id="ArialMT-72" d="M 416 0 
L 416 3319 
L 922 3319 
L 922 2816 
Q 1116 3169 1280 3281 
Q 1444 3394 1641 3394 
Q 1925 3394 2219 3213 
L 2025 2691 
Q 1819 2813 1613 2813 
Q 1428 2813 1281 2702 
Q 1134 2591 1072 2394 
Q 978 2094 978 1738 
L 978 0 
L 416 0 
z
" transform="scale(0.015625)"/>
     <path id="ArialMT-63" d="M 2588 1216 
L 3141 1144 
Q 3050 572 2676 248 
Q 2303 -75 1759 -75 
Q 1078 -75 664 370 
Q 250 816 250 1647 
Q 250 2184 428 2587 
Q 606 2991 970 3192 
Q 1334 3394 1763 3394 
Q 2303 3394 2647 3120 
Q 2991 2847 3088 2344 
L 2541 2259 
Q 2463 2594 2264 2762 
Q 2066 2931 1784 2931 
Q 1359 2931 1093 2626 
Q 828 2322 828 1663 
Q 828 994 1084 691 
Q 1341 388 1753 388 
Q 2084 388 2306 591 
Q 2528 794 2588 1216 
z
" transform="scale(0.015625)"/>
     <path id="ArialMT-6e" d="M 422 0 
L 422 3319 
L 928 3319 
L 928 2847 
Q 1294 3394 1984 3394 
Q 2284 3394 2536 3286 
Q 2788 3178 2913 3003 
Q 3038 2828 3088 2588 
Q 3119 2431 3119 2041 
L 3119 0 
L 2556 0 
L 2556 2019 
Q 2556 2363 2490 2533 
Q 2425 2703 2258 2804 
Q 2091 2906 1866 2906 
Q 1506 2906 1245 2678 
Q 984 2450 984 1813 
L 984 0 
L 422 0 
z
" transform="scale(0.015625)"/>
     <path id="ArialMT-61" d="M 2588 409 
Q 2275 144 1986 34 
Q 1697 -75 1366 -75 
Q 819 -75 525 192 
Q 231 459 231 875 
Q 231 1119 342 1320 
Q 453 1522 633 1644 
Q 813 1766 1038 1828 
Q 1203 1872 1538 1913 
Q 2219 1994 2541 2106 
Q 2544 2222 2544 2253 
Q 2544 2597 2384 2738 
Q 2169 2928 1744 2928 
Q 1347 2928 1158 2789 
Q 969 2650 878 2297 
L 328 2372 
Q 403 2725 575 2942 
Q 747 3159 1072 3276 
Q 1397 3394 1825 3394 
Q 2250 3394 2515 3294 
Q 2781 3194 2906 3042 
Q 3031 2891 3081 2659 
Q 3109 2516 3109 2141 
L 3109 1391 
Q 3109 606 3145 398 
Q 3181 191 3288 0 
L 2700 0 
Q 2613 175 2588 409 
z
M 2541 1666 
Q 2234 1541 1622 1453 
Q 1275 1403 1131 1340 
Q 988 1278 909 1158 
Q 831 1038 831 891 
Q 831 666 1001 516 
Q 1172 366 1500 366 
Q 1825 366 2078 508 
Q 2331 650 2450 897 
Q 2541 1088 2541 1459 
L 2541 1666 
z
" transform="scale(0.015625)"/>
     <path id="ArialMT-73" d="M 197 991 
L 753 1078 
Q 800 744 1014 566 
Q 1228 388 1613 388 
Q 2000 388 2187 545 
Q 2375 703 2375 916 
Q 2375 1106 2209 1216 
Q 2094 1291 1634 1406 
Q 1016 1563 777 1677 
Q 538 1791 414 1992 
Q 291 2194 291 2438 
Q 291 2659 392 2848 
Q 494 3038 669 3163 
Q 800 3259 1026 3326 
Q 1253 3394 1513 3394 
Q 1903 3394 2198 3281 
Q 2494 3169 2634 2976 
Q 2775 2784 2828 2463 
L 2278 2388 
Q 2241 2644 2061 2787 
Q 1881 2931 1553 2931 
Q 1166 2931 1000 2803 
Q 834 2675 834 2503 
Q 834 2394 903 2306 
Q 972 2216 1119 2156 
Q 1203 2125 1616 2013 
Q 2213 1853 2448 1751 
Q 2684 1650 2818 1456 
Q 2953 1263 2953 975 
Q 2953 694 2789 445 
Q 2625 197 2315 61 
Q 2006 -75 1616 -75 
Q 969 -75 630 194 
Q 291 463 197 991 
z
" transform="scale(0.015625)"/>
     <path id="ArialMT-75" d="M 2597 0 
L 2597 488 
Q 2209 -75 1544 -75 
Q 1250 -75 995 37 
Q 741 150 617 320 
Q 494 491 444 738 
Q 409 903 409 1263 
L 409 3319 
L 972 3319 
L 972 1478 
Q 972 1038 1006 884 
Q 1059 663 1231 536 
Q 1403 409 1656 409 
Q 1909 409 2131 539 
Q 2353 669 2445 892 
Q 2538 1116 2538 1541 
L 2538 3319 
L 3100 3319 
L 3100 0 
L 2597 0 
z
" transform="scale(0.015625)"/>
     <path id="ArialMT-77" d="M 1034 0 
L 19 3319 
L 600 3319 
L 1128 1403 
L 1325 691 
Q 1338 744 1497 1375 
L 2025 3319 
L 2603 3319 
L 3100 1394 
L 3266 759 
L 3456 1400 
L 4025 3319 
L 4572 3319 
L 3534 0 
L 2950 0 
L 2422 1988 
L 2294 2553 
L 1622 0 
L 1034 0 
z
" transform="scale(0.015625)"/>
     <path id="ArialMT-5f" d="M -97 -1272 
L -97 -866 
L 3631 -866 
L 3631 -1272 
L -97 -1272 
z
" transform="scale(0.015625)"/>
     <path id="ArialMT-6f" d="M 213 1659 
Q 213 2581 725 3025 
Q 1153 3394 1769 3394 
Q 2453 3394 2887 2945 
Q 3322 2497 3322 1706 
Q 3322 1066 3130 698 
Q 2938 331 2570 128 
Q 2203 -75 1769 -75 
Q 1072 -75 642 372 
Q 213 819 213 1659 
z
M 791 1659 
Q 791 1022 1069 705 
Q 1347 388 1769 388 
Q 2188 388 2466 706 
Q 2744 1025 2744 1678 
Q 2744 2294 2464 2611 
Q 2184 2928 1769 2928 
Q 1347 2928 1069 2612 
Q 791 2297 791 1659 
z
" transform="scale(0.015625)"/>
     <path id="ArialMT-3b" d="M 569 2678 
L 569 3319 
L 1209 3319 
L 1209 2678 
L 569 2678 
z
M 569 0 
L 569 641 
L 1209 641 
L 1209 0 
Q 1209 -353 1084 -570 
Q 959 -788 688 -906 
L 531 -666 
Q 709 -588 793 -436 
Q 878 -284 888 0 
L 569 0 
z
" transform="scale(0.015625)"/>
     <path id="ArialMT-6d" d="M 422 0 
L 422 3319 
L 925 3319 
L 925 2853 
Q 1081 3097 1340 3245 
Q 1600 3394 1931 3394 
Q 2300 3394 2536 3241 
Q 2772 3088 2869 2813 
Q 3263 3394 3894 3394 
Q 4388 3394 4653 3120 
Q 4919 2847 4919 2278 
L 4919 0 
L 4359 0 
L 4359 2091 
Q 4359 2428 4304 2576 
Q 4250 2725 4106 2815 
Q 3963 2906 3769 2906 
Q 3419 2906 3187 2673 
Q 2956 2441 2956 1928 
L 2956 0 
L 2394 0 
L 2394 2156 
Q 2394 2531 2256 2718 
Q 2119 2906 1806 2906 
Q 1569 2906 1367 2781 
Q 1166 2656 1075 2415 
Q 984 2175 984 1722 
L 984 0 
L 422 0 
z
" transform="scale(0.015625)"/>
     <path id="ArialMT-6c" d="M 409 0 
L 409 4581 
L 972 4581 
L 972 0 
L 409 0 
z
" transform="scale(0.015625)"/>
     <path id="ArialMT-2d" d="M 203 1375 
L 203 1941 
L 1931 1941 
L 1931 1375 
L 203 1375 
z
" transform="scale(0.015625)"/>
     <path id="ArialMT-66" d="M 556 0 
L 556 2881 
L 59 2881 
L 59 3319 
L 556 3319 
L 556 3672 
Q 556 4006 616 4169 
Q 697 4388 901 4523 
Q 1106 4659 1475 4659 
Q 1713 4659 2000 4603 
L 1916 4113 
Q 1741 4144 1584 4144 
Q 1328 4144 1222 4034 
Q 1116 3925 1116 3625 
L 1116 3319 
L 1763 3319 
L 1763 2881 
L 1116 2881 
L 1116 0 
L 556 0 
z
" transform="scale(0.015625)"/>
     <path id="ArialMT-53" d="M 288 1472 
L 859 1522 
Q 900 1178 1048 958 
Q 1197 738 1509 602 
Q 1822 466 2213 466 
Q 2559 466 2825 569 
Q 3091 672 3220 851 
Q 3350 1031 3350 1244 
Q 3350 1459 3225 1620 
Q 3100 1781 2813 1891 
Q 2628 1963 1997 2114 
Q 1366 2266 1113 2400 
Q 784 2572 623 2826 
Q 463 3081 463 3397 
Q 463 3744 659 4045 
Q 856 4347 1234 4503 
Q 1613 4659 2075 4659 
Q 2584 4659 2973 4495 
Q 3363 4331 3572 4012 
Q 3781 3694 3797 3291 
L 3216 3247 
Q 3169 3681 2898 3903 
Q 2628 4125 2100 4125 
Q 1550 4125 1298 3923 
Q 1047 3722 1047 3438 
Q 1047 3191 1225 3031 
Q 1400 2872 2139 2705 
Q 2878 2538 3153 2413 
Q 3553 2228 3743 1945 
Q 3934 1663 3934 1294 
Q 3934 928 3725 604 
Q 3516 281 3123 101 
Q 2731 -78 2241 -78 
Q 1619 -78 1198 103 
Q 778 284 539 648 
Q 300 1013 288 1472 
z
" transform="scale(0.015625)"/>
     <path id="ArialMT-48" d="M 513 0 
L 513 4581 
L 1119 4581 
L 1119 2700 
L 3500 2700 
L 3500 4581 
L 4106 4581 
L 4106 0 
L 3500 0 
L 3500 2159 
L 1119 2159 
L 1119 0 
L 513 0 
z
" transform="scale(0.015625)"/>
     <path id="ArialMT-45" d="M 506 0 
L 506 4581 
L 3819 4581 
L 3819 4041 
L 1113 4041 
L 1113 2638 
L 3647 2638 
L 3647 2100 
L 1113 2100 
L 1113 541 
L 3925 541 
L 3925 0 
L 506 0 
z
" transform="scale(0.015625)"/>
     <path id="ArialMT-44" d="M 494 0 
L 494 4581 
L 2072 4581 
Q 2606 4581 2888 4516 
Q 3281 4425 3559 4188 
Q 3922 3881 4101 3404 
Q 4281 2928 4281 2316 
Q 4281 1794 4159 1391 
Q 4038 988 3847 723 
Q 3656 459 3429 307 
Q 3203 156 2883 78 
Q 2563 0 2147 0 
L 494 0 
z
M 1100 541 
L 2078 541 
Q 2531 541 2789 625 
Q 3047 709 3200 863 
Q 3416 1078 3536 1442 
Q 3656 1806 3656 2325 
Q 3656 3044 3420 3430 
Q 3184 3816 2847 3947 
Q 2603 4041 2063 4041 
L 1100 4041 
L 1100 541 
z
" transform="scale(0.015625)"/>
     <path id="ArialMT-34" d="M 2069 0 
L 2069 1097 
L 81 1097 
L 81 1613 
L 2172 4581 
L 2631 4581 
L 2631 1613 
L 3250 1613 
L 3250 1097 
L 2631 1097 
L 2631 0 
L 2069 0 
z
M 2069 1613 
L 2069 3678 
L 634 1613 
L 2069 1613 
z
" transform="scale(0.015625)"/>
     <path id="ArialMT-2e" d="M 581 0 
L 581 641 
L 1222 641 
L 1222 0 
L 581 0 
z
" transform="scale(0.015625)"/>
    </defs>
    <use xlink:href="#ArialMT-57"/>
    <use xlink:href="#ArialMT-65" transform="translate(92.634766 0)"/>
    <use xlink:href="#ArialMT-69" transform="translate(148.25 0)"/>
    <use xlink:href="#ArialMT-67" transform="translate(170.466797 0)"/>
    <use xlink:href="#ArialMT-68" transform="translate(226.082031 0)"/>
    <use xlink:href="#ArialMT-74" transform="translate(281.697266 0)"/>
    <use xlink:href="#ArialMT-65" transform="translate(309.480469 0)"/>
    <use xlink:href="#ArialMT-64" transform="translate(365.095703 0)"/>
    <use xlink:href="#ArialMT-20" transform="translate(420.710938 0)"/>
    <use xlink:href="#ArialMT-70" transform="translate(448.494141 0)"/>
    <use xlink:href="#ArialMT-65" transform="translate(504.109375 0)"/>
    <use xlink:href="#ArialMT-72" transform="translate(559.724609 0)"/>
    <use xlink:href="#ArialMT-63" transform="translate(593.025391 0)"/>
    <use xlink:href="#ArialMT-65" transform="translate(643.025391 0)"/>
    <use xlink:href="#ArialMT-6e" transform="translate(698.640625 0)"/>
    <use xlink:href="#ArialMT-74" transform="translate(754.255859 0)"/>
    <use xlink:href="#ArialMT-61" transform="translate(782.039062 0)"/>
    <use xlink:href="#ArialMT-67" transform="translate(837.654297 0)"/>
    <use xlink:href="#ArialMT-65" transform="translate(893.269531 0)"/>
    <use xlink:href="#ArialMT-73" transform="translate(948.884766 0)"/>
    <use xlink:href="#ArialMT-20" transform="translate(998.884766 0)"/>
    <use xlink:href="#ArialMT-75" transform="translate(1026.667969 0)"/>
    <use xlink:href="#ArialMT-73" transform="translate(1082.283203 0)"/>
    <use xlink:href="#ArialMT-69" transform="translate(1132.283203 0)"/>
    <use xlink:href="#ArialMT-6e" transform="translate(1154.5 0)"/>
    <use xlink:href="#ArialMT-67" transform="translate(1210.115234 0)"/>
    <use xlink:href="#ArialMT-20" transform="translate(1265.730469 0)"/>
    <use xlink:href="#ArialMT-77" transform="translate(1293.513672 0)"/>
    <use xlink:href="#ArialMT-65" transform="translate(1365.730469 0)"/>
    <use xlink:href="#ArialMT-69" transform="translate(1421.345703 0)"/>
    <use xlink:href="#ArialMT-67" transform="translate(1443.5625 0)"/>
    <use xlink:href="#ArialMT-68" transform="translate(1499.177734 0)"/>
    <use xlink:href="#ArialMT-74" transform="translate(1554.792969 0)"/>
    <use xlink:href="#ArialMT-5f" transform="translate(1582.576172 0)"/>
    <use xlink:href="#ArialMT-70" transform="translate(1638.191406 0)"/>
    <use xlink:href="#ArialMT-6f" transform="translate(1693.806641 0)"/>
    <use xlink:href="#ArialMT-70" transform="translate(1749.421875 0)"/>
    <use xlink:href="#ArialMT-3b" transform="translate(1805.037109 0)"/>
    <use xlink:href="#ArialMT-20" transform="translate(1832.820312 0)"/>
    <use xlink:href="#ArialMT-73" transform="translate(1860.603516 0)"/>
    <use xlink:href="#ArialMT-61" transform="translate(1910.603516 0)"/>
    <use xlink:href="#ArialMT-6d" transform="translate(1966.21875 0)"/>
    <use xlink:href="#ArialMT-70" transform="translate(2049.519531 0)"/>
    <use xlink:href="#ArialMT-6c" transform="translate(2105.134766 0)"/>
    <use xlink:href="#ArialMT-65" transform="translate(2127.351562 0)"/>
    <use xlink:href="#ArialMT-20" transform="translate(2182.966797 0)"/>
    <use xlink:href="#ArialMT-69" transform="translate(2210.75 0)"/>
    <use xlink:href="#ArialMT-73" transform="translate(2232.966797 0)"/>
    <use xlink:href="#ArialMT-20" transform="translate(2282.966797 0)"/>
    <use xlink:href="#ArialMT-6e" transform="translate(2310.75 0)"/>
    <use xlink:href="#ArialMT-6f" transform="translate(2366.365234 0)"/>
    <use xlink:href="#ArialMT-6e" transform="translate(2421.980469 0)"/>
    <use xlink:href="#ArialMT-2d" transform="translate(2477.595703 0)"/>
    <use xlink:href="#ArialMT-72" transform="translate(2510.896484 0)"/>
    <use xlink:href="#ArialMT-65" transform="translate(2544.197266 0)"/>
    <use xlink:href="#ArialMT-74" transform="translate(2599.8125 0)"/>
    <use xlink:href="#ArialMT-69" transform="translate(2627.595703 0)"/>
    <use xlink:href="#ArialMT-72" transform="translate(2649.8125 0)"/>
    <use xlink:href="#ArialMT-65" transform="translate(2683.113281 0)"/>
    <use xlink:href="#ArialMT-64" transform="translate(2738.728516 0)"/>
    <use xlink:href="#ArialMT-20" transform="translate(2794.34375 0)"/>
    <use xlink:href="#ArialMT-72" transform="translate(2822.126953 0)"/>
    <use xlink:href="#ArialMT-65" transform="translate(2855.427734 0)"/>
    <use xlink:href="#ArialMT-73" transform="translate(2911.042969 0)"/>
    <use xlink:href="#ArialMT-70" transform="translate(2961.042969 0)"/>
    <use xlink:href="#ArialMT-6f" transform="translate(3016.658203 0)"/>
    <use xlink:href="#ArialMT-6e" transform="translate(3072.273438 0)"/>
    <use xlink:href="#ArialMT-64" transform="translate(3127.888672 0)"/>
    <use xlink:href="#ArialMT-65" transform="translate(3183.503906 0)"/>
    <use xlink:href="#ArialMT-6e" transform="translate(3239.119141 0)"/>
    <use xlink:href="#ArialMT-74" transform="translate(3294.734375 0)"/>
    <use xlink:href="#ArialMT-73" transform="translate(3322.517578 0)"/>
    <use xlink:href="#ArialMT-20" transform="translate(3372.517578 0)"/>
    <use xlink:href="#ArialMT-66" transform="translate(3400.300781 0)"/>
    <use xlink:href="#ArialMT-72" transform="translate(3428.083984 0)"/>
    <use xlink:href="#ArialMT-6f" transform="translate(3461.384766 0)"/>
    <use xlink:href="#ArialMT-6d" transform="translate(3517 0)"/>
    <use xlink:href="#ArialMT-20" transform="translate(3600.300781 0)"/>
    <use xlink:href="#ArialMT-53" transform="translate(3628.083984 0)"/>
    <use xlink:href="#ArialMT-48" transform="translate(3694.783203 0)"/>
    <use xlink:href="#ArialMT-45" transform="translate(3767 0)"/>
    <use xlink:href="#ArialMT-44" transform="translate(3833.699219 0)"/>
    <use xlink:href="#ArialMT-20" transform="translate(3905.916016 0)"/>
    <use xlink:href="#ArialMT-32" transform="translate(3933.699219 0)"/>
    <use xlink:href="#ArialMT-30" transform="translate(3989.314453 0)"/>
    <use xlink:href="#ArialMT-32" transform="translate(4044.929688 0)"/>
    <use xlink:href="#ArialMT-34" transform="translate(4100.544922 0)"/>
    <use xlink:href="#ArialMT-2e" transform="translate(4156.160156 0)"/>
   </g>
  </g>
 </g>
 <defs>
  <clipPath id="pbd372c35f8">
   <rect x="45.975313" y="39.575469" width="873.79125" height="476.18"/>
  </clipPath>
 </defs>
</svg>
