<svg class="main-svg" xmlns="http://www.w3.org/2000/svg" xmlns:xlink="http://www.w3.org/1999/xlink" width="1200" height="700" viewBox="0 0 1200 700" style=""><rect x="0" y="0" width="1200" height="700" style="fill: rgb(255, 255, 255); fill-opacity: 1;"/><defs id="defs-f2dcb2"><g class="clips"/><g class="gradients"/><g class="patterns"/></defs><g class="bglayer"/><g class="layer-below"><g class="imagelayer"/><g class="shapelayer"/></g><g class="cartesianlayer"/><g class="polarlayer"/><g class="smithlayer"/><g class="ternarylayer"/><g class="geolayer"/><g class="funnelarealayer"/><g class="pielayer"/><g class="iciclelayer"/><g class="treemaplayer"/><g class="sunburstlayer"/><g class="glimages"/><g class="sankey" transform="translate(20,90)matrix(1 0 0 1 0 0)" style="box-sizing: content-box; position: absolute; left: 0px; shape-rendering: geometricprecision; pointer-events: none;"><g class="sankey-links" style="fill: none;"><path class="sankey-link" d="M20,437.7928232904537C580,437.7928232904537 580,366.2525389302643 1140,366.2525389302643L1140,371.99390656736654C580,371.99390656736654 580,443.534190927556 20,443.534190927556Z" style="stroke: rgb(68, 68, 68); stroke-opacity: 1; fill: rgb(255, 152, 0); fill-opacity: 0.3; stroke-width: 0; opacity: 1;"/><path class="sankey-link" d="M20,443.534190927556C580,443.534190927556 580,413.20920785375785 1140,413.20920785375785L1140,416.3507109004742C580,416.3507109004742 580,446.67569397427235 20,446.67569397427235Z" style="stroke: rgb(68, 68, 68); stroke-opacity: 1; fill: rgb(255, 152, 0); fill-opacity: 0.3; stroke-width: 0; opacity: 1;"/><path class="sankey-link" d="M20,453.8253215978336C580,453.8253215978336 580,537.8300609343263 1140,537.8300609343263L1140,538.7508463100879C580,538.7508463100879 580,454.7461069735952 20,454.7461069735952Z" style="stroke: rgb(158, 158, 158); stroke-opacity: 0.3; fill: rgb(158, 158, 158); fill-opacity: 0.3; stroke-width: 1; opacity: 1;"/><path class="sankey-link" d="M20,453.12119160460406C580,453.12119160460406 580,511.0223425863236 1140,511.0223425863236L1140,511.72647257955316C580,511.72647257955316 580,453.82532159783364 20,453.82532159783364Z" style="stroke: rgb(158, 158, 158); stroke-opacity: 0.3; fill: rgb(158, 158, 158); fill-opacity: 0.3; stroke-width: 1; opacity: 1;"/><path class="sankey-link" d="M20,454.74610697359526C580,454.74610697359526 580,565.7210561949898 1140,565.7210561949898L1140,566.3710223425862C580,566.3710223425862 580,455.39607312119176 20,455.39607312119176Z" style="stroke: rgb(158, 158, 158); stroke-opacity: 0.3; fill: rgb(158, 158, 158); fill-opacity: 0.3; stroke-width: 1; opacity: 1;"/><path class="sankey-link" d="M20,446.6756939742723C580,446.6756939742723 580,464.01150981719707 1140,464.01150981719707L1140,470.4570074475288C580,470.4570074475288 580,453.121191604604 20,453.121191604604Z" style="stroke: rgb(68, 68, 68); stroke-opacity: 1; fill: rgb(158, 158, 158); fill-opacity: 0.3; stroke-width: 0; opacity: 1;"/><path class="sankey-link" d="M20,351.45565335138804C580,351.45565335138804 580,218.82193635748155 1140,218.82193635748155L1140,305.15910629654724C580,305.15910629654724 580,437.7928232904537 20,437.7928232904537Z" style="stroke: rgb(68, 68, 68); stroke-opacity: 1; fill: rgb(46, 125, 50); fill-opacity: 0.5; stroke-width: 0; opacity: 1;"/><path class="sankey-link" d="M20,512.9654705484093C580,512.9654705484093 580,372.69803656059605 1140,372.69803656059605L1140,384.0724441435344C580,384.0724441435344 580,524.3398781313476 20,524.3398781313476Z" style="stroke: rgb(68, 68, 68); stroke-opacity: 1; fill: rgb(230, 57, 70); fill-opacity: 0.5; stroke-width: 0; opacity: 1;"/><path class="sankey-link" d="M20,524.3398781313476C580,524.3398781313476 580,416.8381855111715 1140,416.8381855111715L1140,426.4251861882196C580,426.4251861882196 580,533.9268788083957 20,533.9268788083957Z" style="stroke: rgb(68, 68, 68); stroke-opacity: 1; fill: rgb(230, 57, 70); fill-opacity: 0.5; stroke-width: 0; opacity: 1;"/><path class="sankey-link" d="M20,557.5423155044011C580,557.5423155044011 580,539.0216655382532 1140,539.0216655382532L1140,548.0128639133378C580,548.0128639133378 580,566.5335138794858 20,566.5335138794858Z" style="stroke: rgb(68, 68, 68); stroke-opacity: 1; fill: rgb(183, 28, 28); fill-opacity: 0.6; stroke-width: 0; opacity: 1;"/><path class="sankey-link" d="M20,553.263371699391C580,553.263371699391 580,511.72647257955305 1140,511.72647257955305L1140,516.0054163845632C580,516.0054163845632 580,557.5423155044011 20,557.5423155044011Z" style="stroke: rgb(68, 68, 68); stroke-opacity: 1; fill: rgb(183, 28, 28); fill-opacity: 0.6; stroke-width: 0; opacity: 1;"/><path class="sankey-link" d="M20,566.5335138794858C580,566.5335138794858 580,566.5335138794854 1140,566.5335138794854L1140,569.9999999999999C580,569.9999999999999 580,570.0000000000002 20,570.0000000000002Z" style="stroke: rgb(68, 68, 68); stroke-opacity: 1; fill: rgb(230, 57, 70); fill-opacity: 0.5; stroke-width: 0; opacity: 1;"/><path class="sankey-link" d="M20,533.9268788083957C580,533.9268788083957 580,471.7569397427218 1140,471.7569397427218L1140,491.09343263371704C580,491.09343263371704 580,553.263371699391 20,553.263371699391Z" style="stroke: rgb(68, 68, 68); stroke-opacity: 1; fill: rgb(230, 57, 70); fill-opacity: 0.5; stroke-width: 0; opacity: 1;"/><path class="sankey-link" d="M20,490.92078537576197C580,490.92078537576197 580,307.7589708869331 1140,307.7589708869331L1140,329.8036560595804C580,329.8036560595804 580,512.9654705484093 20,512.9654705484093Z" style="stroke: rgb(68, 68, 68); stroke-opacity: 1; fill: rgb(158, 158, 158); fill-opacity: 0.3; stroke-width: 0; opacity: 1;"/><path class="sankey-link" d="M20,472.99593771157777C580,472.99593771157777 580,371.99390656736654 1140,371.99390656736654L1140,372.6980365605961C580,372.6980365605961 580,473.70006770480734 20,473.70006770480734Z" style="stroke: rgb(230, 57, 70); stroke-opacity: 0.5; fill: rgb(230, 57, 70); fill-opacity: 0.5; stroke-width: 1; opacity: 1;"/><path class="sankey-link" d="M20,473.7000677048073C580,473.7000677048073 580,416.35071090047416 1140,416.35071090047416L1140,416.83818551117156C580,416.83818551117156 580,474.1875423155047 20,474.1875423155047Z" style="stroke: rgb(230, 57, 70); stroke-opacity: 0.5; fill: rgb(230, 57, 70); fill-opacity: 0.5; stroke-width: 1; opacity: 1;"/><path class="sankey-link" d="M20,475.4874746106976C580,475.4874746106976 580,538.7508463100879 1140,538.7508463100879L1140,539.0216655382532C580,539.0216655382532 580,475.7582938388628 20,475.7582938388628Z" style="stroke: rgb(183, 28, 28); stroke-opacity: 0.6; fill: rgb(183, 28, 28); fill-opacity: 0.6; stroke-width: 1; opacity: 1;"/><path class="sankey-link" d="M20,475.75829383886276C580,475.75829383886276 580,566.3710223425863 1140,566.3710223425863L1140,566.5335138794854C580,566.5335138794854 580,475.92078537576185 20,475.92078537576185Z" style="stroke: rgb(230, 57, 70); stroke-opacity: 0.5; fill: rgb(230, 57, 70); fill-opacity: 0.5; stroke-width: 1; opacity: 1;"/><path class="sankey-link" d="M20,474.18754231550463C580,474.18754231550463 580,470.45700744752884 1140,470.45700744752884L1140,471.75693974272184C580,471.75693974272184 580,475.48747461069763 20,475.48747461069763Z" style="stroke: rgb(68, 68, 68); stroke-opacity: 1; fill: rgb(230, 57, 70); fill-opacity: 0.5; stroke-width: 0; opacity: 1;"/><path class="sankey-link" d="M20,470.3960731211919C580,470.3960731211919 580,305.15910629654724 1140,305.15910629654724L1140,307.7589708869331C580,307.7589708869331 580,472.99593771157777 20,472.99593771157777Z" style="stroke: rgb(68, 68, 68); stroke-opacity: 1; fill: rgb(158, 158, 158); fill-opacity: 0.3; stroke-width: 0; opacity: 1;"/><path class="sankey-link" d="M20,263.82193635748155C580,263.82193635748155 580,344.8036560595805 1140,344.8036560595805L1140,366.25253893026434C580,366.25253893026434 580,285.2708192281654 20,285.2708192281654Z" style="stroke: rgb(68, 68, 68); stroke-opacity: 1; fill: rgb(158, 158, 158); fill-opacity: 0.3; stroke-width: 0; opacity: 1;"/><path class="sankey-link" d="M20,285.27081922816535C580,285.27081922816535 580,399.0724441435344 1140,399.0724441435344L1140,413.2092078537579C580,413.2092078537579 580,299.4075829383888 20,299.4075829383888Z" style="stroke: rgb(68, 68, 68); stroke-opacity: 1; fill: rgb(158, 158, 158); fill-opacity: 0.3; stroke-width: 0; opacity: 1;"/><path class="sankey-link" d="M20,326.9228165199731C580,326.9228165199731 580,531.0054163845633 1140,531.0054163845633L1140,537.8300609343263C580,537.8300609343263 580,333.74746106973606 20,333.74746106973606Z" style="stroke: rgb(68, 68, 68); stroke-opacity: 1; fill: rgb(158, 158, 158); fill-opacity: 0.3; stroke-width: 0; opacity: 1;"/><path class="sankey-link" d="M20,321.9939065673664C580,321.9939065673664 580,506.09343263371693 1140,506.09343263371693L1140,511.0223425863236C580,511.0223425863236 580,326.9228165199731 20,326.9228165199731Z" style="stroke: rgb(68, 68, 68); stroke-opacity: 1; fill: rgb(158, 158, 158); fill-opacity: 0.3; stroke-width: 0; opacity: 1;"/><path class="sankey-link" d="M20,333.7474610697361C580,333.7474610697361 580,563.0128639133378 1140,563.0128639133378L1140,565.7210561949897C580,565.7210561949897 580,336.45565335138815 20,336.45565335138815Z" style="stroke: rgb(68, 68, 68); stroke-opacity: 1; fill: rgb(158, 158, 158); fill-opacity: 0.3; stroke-width: 0; opacity: 1;"/><path class="sankey-link" d="M20,299.40758293838877C580,299.40758293838877 580,441.4251861882194 1140,441.4251861882194L1140,464.01150981719707C580,464.01150981719707 580,321.9939065673664 20,321.9939065673664Z" style="stroke: rgb(68, 68, 68); stroke-opacity: 1; fill: rgb(158, 158, 158); fill-opacity: 0.3; stroke-width: 0; opacity: 1;"/><path class="sankey-link" d="M20,45.000000000000156C580,45.000000000000156 580,1.7053025658242404e-13 1140,1.7053025658242404e-13L1140,218.82193635748158C580,218.82193635748158 580,263.82193635748155 20,263.82193635748155Z" style="stroke: rgb(68, 68, 68); stroke-opacity: 1; fill: rgb(158, 158, 158); fill-opacity: 0.3; stroke-width: 0; opacity: 1;"/></g><g class="sankey-node-set" style="cursor: move;"><g class="sankey-node" transform="translate(0.000,351.456)" style="opacity: 1;"><rect class="node-rect" width="20" height="103.94041976980384" style="stroke-width: 0.5; stroke: rgb(0, 0, 0); stroke-opacity: 1; fill: rgb(46, 125, 50); fill-opacity: 1;"/><text class="node-label" data-notex="1" x="0" y="0" text-anchor="start" transform="translate(23.25,55.82020988490192)" style="cursor: default; font-family: Arial, sans-serif; font-size: 11px; fill: rgb(42, 63, 95); fill-opacity: 1; text-shadow: rgb(255, 255, 255) 1px 1px 1px, rgb(255, 255, 255) -1px -1px 1px, rgb(255, 255, 255) 1px -1px 1px, rgb(255, 255, 255) -1px 1px 1px; white-space: pre;">Approved</text></g><g class="sankey-node" transform="translate(0.000,490.921)" style="opacity: 1;"><rect class="node-rect" width="20" height="79.07921462423803" style="stroke-width: 0.5; stroke: rgb(0, 0, 0); stroke-opacity: 1; fill: rgb(230, 57, 70); fill-opacity: 1;"/><text class="node-label" data-notex="1" x="0" y="0" text-anchor="start" transform="translate(23.25,43.38960731211902)" style="cursor: default; font-family: Arial, sans-serif; font-size: 11px; fill: rgb(42, 63, 95); fill-opacity: 1; text-shadow: rgb(255, 255, 255) 1px 1px 1px, rgb(255, 255, 255) -1px -1px 1px, rgb(255, 255, 255) 1px -1px 1px, rgb(255, 255, 255) -1px 1px 1px; white-space: pre;">Denied/Reduced credit</text></g><g class="sankey-node" transform="translate(0.000,470.396)" style="opacity: 1;"><rect class="node-rect" width="20" height="5.52471225457009" style="stroke-width: 0.5; stroke: rgb(0, 0, 0); stroke-opacity: 1; fill: rgb(247, 127, 0); fill-opacity: 1;"/><text class="node-label" data-notex="1" x="0" y="0" text-anchor="start" transform="translate(23.25,6.612356127285045)" style="cursor: default; font-family: Arial, sans-serif; font-size: 11px; fill: rgb(42, 63, 95); fill-opacity: 1; text-shadow: rgb(255, 255, 255) 1px 1px 1px, rgb(255, 255, 255) -1px -1px 1px, rgb(255, 255, 255) 1px -1px 1px, rgb(255, 255, 255) -1px 1px 1px; white-space: pre;">Avoided applying</text></g><g class="sankey-node" transform="translate(0.000,45.000)" style="opacity: 1;"><rect class="node-rect" width="20" height="291.4556533513879" style="stroke-width: 0.5; stroke: rgb(0, 0, 0); stroke-opacity: 1; fill: rgb(158, 158, 158); fill-opacity: 1;"/><text class="node-label" data-notex="1" x="0" y="0" text-anchor="start" transform="translate(23.25,149.57782667569396)" style="cursor: default; font-family: Arial, sans-serif; font-size: 11px; fill: rgb(42, 63, 95); fill-opacity: 1; text-shadow: rgb(255, 255, 255) 1px 1px 1px, rgb(255, 255, 255) -1px -1px 1px, rgb(255, 255, 255) 1px -1px 1px, rgb(255, 255, 255) -1px 1px 1px; white-space: pre;">No credit application</text></g><g class="sankey-node" transform="translate(1140.000,344.804)" style="opacity: 1;"><rect class="node-rect" width="20" height="39.26878808395395" style="stroke-width: 0.5; stroke: rgb(0, 0, 0); stroke-opacity: 1; fill: rgb(255, 152, 0); fill-opacity: 1;"/><text class="node-label" data-notex="1" x="0" y="0" text-anchor="end" transform="translate(-3.25,23.484394041976977)" style="cursor: default; font-family: Arial, sans-serif; font-size: 11px; fill: rgb(42, 63, 95); fill-opacity: 1; text-shadow: rgb(255, 255, 255) 1px 1px 1px, rgb(255, 255, 255) -1px -1px 1px, rgb(255, 255, 255) 1px -1px 1px, rgb(255, 255, 255) -1px 1px 1px; white-space: pre;">Money orders</text></g><g class="sankey-node" transform="translate(1140.000,399.072)" style="opacity: 1;"><rect class="node-rect" width="20" height="27.352742044684987" style="stroke-width: 0.5; stroke: rgb(0, 0, 0); stroke-opacity: 1; fill: rgb(255, 112, 67); fill-opacity: 1;"/><text class="node-label" data-notex="1" x="0" y="0" text-anchor="end" transform="translate(-3.25,17.526371022342495)" style="cursor: default; font-family: Arial, sans-serif; font-size: 11px; fill: rgb(42, 63, 95); fill-opacity: 1; text-shadow: rgb(255, 255, 255) 1px 1px 1px, rgb(255, 255, 255) -1px -1px 1px, rgb(255, 255, 255) 1px -1px 1px, rgb(255, 255, 255) -1px 1px 1px; white-space: pre;">Check cashing</text></g><g class="sankey-node" transform="translate(1140.000,531.005)" style="opacity: 1;"><rect class="node-rect" width="20" height="17.00744752877449" style="stroke-width: 0.5; stroke: rgb(0, 0, 0); stroke-opacity: 1; fill: rgb(211, 47, 47); fill-opacity: 1;"/><text class="node-label" data-notex="1" x="0" y="0" text-anchor="end" transform="translate(-3.25,12.353723764387246)" style="cursor: default; font-family: Arial, sans-serif; font-size: 11px; fill: rgb(42, 63, 95); fill-opacity: 1; text-shadow: rgb(255, 255, 255) 1px 1px 1px, rgb(255, 255, 255) -1px -1px 1px, rgb(255, 255, 255) 1px -1px 1px, rgb(255, 255, 255) -1px 1px 1px; white-space: pre;">Payday loans</text></g><g class="sankey-node" transform="translate(1140.000,506.093)" style="opacity: 1;"><rect class="node-rect" width="20" height="9.911983750846389" style="stroke-width: 0.5; stroke: rgb(0, 0, 0); stroke-opacity: 1; fill: rgb(183, 28, 28); fill-opacity: 1;"/><text class="node-label" data-notex="1" x="0" y="0" text-anchor="end" transform="translate(-3.25,8.805991875423194)" style="cursor: default; font-family: Arial, sans-serif; font-size: 11px; fill: rgb(42, 63, 95); fill-opacity: 1; text-shadow: rgb(255, 255, 255) 1px 1px 1px, rgb(255, 255, 255) -1px -1px 1px, rgb(255, 255, 255) 1px -1px 1px, rgb(255, 255, 255) -1px 1px 1px; white-space: pre;">Pawn/auto title loans</text></g><g class="sankey-node" transform="translate(1140.000,563.013)" style="opacity: 1;"><rect class="node-rect" width="20" height="6.98713608666219" style="stroke-width: 0.5; stroke: rgb(0, 0, 0); stroke-opacity: 1; fill: rgb(230, 74, 25); fill-opacity: 1;"/><text class="node-label" data-notex="1" x="0" y="0" text-anchor="end" transform="translate(-3.25,7.343568043331095)" style="cursor: default; font-family: Arial, sans-serif; font-size: 11px; fill: rgb(42, 63, 95); fill-opacity: 1; text-shadow: rgb(255, 255, 255) 1px 1px 1px, rgb(255, 255, 255) -1px -1px 1px, rgb(255, 255, 255) 1px -1px 1px, rgb(255, 255, 255) -1px 1px 1px; white-space: pre;">Tax refund advances</text></g><g class="sankey-node" transform="translate(1140.000,441.425)" style="opacity: 1;"><rect class="node-rect" width="20" height="49.668246445497516" style="stroke-width: 0.5; stroke: rgb(0, 0, 0); stroke-opacity: 1; fill: rgb(244, 81, 30); fill-opacity: 1;"/><text class="node-label" data-notex="1" x="0" y="0" text-anchor="end" transform="translate(-3.25,28.68412322274876)" style="cursor: default; font-family: Arial, sans-serif; font-size: 11px; fill: rgb(42, 63, 95); fill-opacity: 1; text-shadow: rgb(255, 255, 255) 1px 1px 1px, rgb(255, 255, 255) -1px -1px 1px, rgb(255, 255, 255) 1px -1px 1px, rgb(255, 255, 255) -1px 1px 1px; white-space: pre;">Overdraft fees</text></g><g class="sankey-node" transform="translate(1140.000,0.000)" style="opacity: 1;"><rect class="node-rect" width="20" height="329.8036560595803" style="stroke-width: 0.5; stroke: rgb(0, 0, 0); stroke-opacity: 1; fill: rgb(102, 187, 106); fill-opacity: 1;"/><text class="node-label" data-notex="1" x="0" y="0" text-anchor="end" transform="translate(-3.25,168.75182802979015)" style="cursor: default; font-family: Arial, sans-serif; font-size: 11px; fill: rgb(42, 63, 95); fill-opacity: 1; text-shadow: rgb(255, 255, 255) 1px 1px 1px, rgb(255, 255, 255) -1px -1px 1px, rgb(255, 255, 255) 1px -1px 1px, rgb(255, 255, 255) -1px 1px 1px; white-space: pre;">No alt finance</text></g></g></g><defs id="topdefs-f2dcb2"><g class="clips"/></defs><g class="layer-above"><g class="imagelayer"/><g class="shapelayer"/></g><g class="infolayer"><g class="g-gtitle"><text class="gtitle" x="600" y="45" text-anchor="middle" dy="0em" style="opacity: 1; font-family: Arial, sans-serif; font-size: 18px; fill: rgb(42, 63, 95); fill-opacity: 1; white-space: pre;"><tspan class="line" dy="0em" x="600" y="45">The Alternative Economy Pipeline:</tspan><tspan class="line" dy="1.3em" x="600" y="45">Which Services Do Credit-Excluded Individuals Turn To?</tspan></text></g><g class="first-render"/></g></svg>